<svg width="1920" height="1080" viewBox="0 0 1920 1080" fill="none" xmlns="http://www.w3.org/2000/svg">
<rect width="1920" height="1080" transform="matrix(-1 0 0 1 1920 0)" fill="url(#paint0_linear_7_2)"/>
<ellipse cx="25" cy="20" rx="25" ry="20" transform="matrix(-1 0 0 1 1122 374)" fill="#22285F"/>
<ellipse cx="25" cy="20" rx="25" ry="20" transform="matrix(-1 0 0 1 839 92)" fill="#22285F"/>
<ellipse cx="21.5" cy="14.5" rx="21.5" ry="14.5" transform="matrix(-1 0 0 1 832 401)" fill="#22285F"/>
<ellipse cx="24.1625" cy="24.5646" rx="24.1625" ry="24.5646" transform="matrix(-0.657829 0.753167 0.753167 0.657829 898.787 541.285)" fill="#22285F"/>
<circle cx="1324.5" cy="1074.5" r="974.5" fill="#14183F"/>
<mask id="mask0_7_2" style="mask-type:alpha" maskUnits="userSpaceOnUse" x="477" y="227" width="1695" height="1695">
<path d="M2171.95 1074.5C2171.95 1542.53 1792.53 1921.95 1324.5 1921.95C856.466 1921.95 477.05 1542.53 477.05 1074.5C477.05 606.466 856.466 227.05 1324.5 227.05C1792.53 227.05 2171.95 606.466 2171.95 1074.5Z" fill="#124E94"/>
</mask>
<g mask="url(#mask0_7_2)">
<g filter="url(#filter0_d_7_2)">
<path d="M2171.95 1074.5C2171.95 1542.53 1792.53 1921.95 1324.5 1921.95C856.466 1921.95 477.05 1542.53 477.05 1074.5C477.05 606.466 856.466 227.05 1324.5 227.05C1792.53 227.05 2171.95 606.466 2171.95 1074.5Z" fill="#124E94"/>
</g>
<g filter="url(#filter1_d_7_2)">
<path d="M2169.25 1074.5C2169.25 1542.53 1789.83 1921.95 1321.8 1921.95C853.763 1921.95 474.347 1542.53 474.347 1074.5C474.347 606.466 853.763 227.05 1321.8 227.05C1789.83 227.05 2169.25 606.466 2169.25 1074.5Z" fill="#124E94"/>
</g>
<path d="M852.793 -224.383H2401.72V2389.6H852.793C852.793 2389.6 1520.48 2102.03 1520.48 1116.54C1520.48 131.042 852.793 -224.383 852.793 -224.383Z" fill="#0D3461" fill-opacity="0.45"/>
<rect x="1693.49" y="851.487" width="543.341" height="235.178" fill="#20992C"/>
<circle cx="1692.13" cy="969.076" r="117.589" fill="#20992C"/>
<rect x="1812.43" y="227.05" width="543.341" height="235.178" fill="#20992C"/>
<circle cx="1811.07" cy="344.639" r="117.589" fill="#20992C"/>
<rect x="477.05" y="556.839" width="497.387" height="189.223" fill="#20992C"/>
<circle cx="969.031" cy="651.451" r="94.6116" fill="#20992C"/>
<rect x="1412.35" y="589.277" width="235.178" height="135.16" fill="#20992C"/>
<rect x="668.976" y="800.126" width="189.223" height="175.707" fill="#20992C"/>
<circle cx="1647.53" cy="656.857" r="67.5798" fill="#20992C"/>
<circle cx="856.848" cy="887.98" r="87.8537" fill="#20992C"/>
<circle cx="1415.06" cy="656.857" r="67.5798" fill="#20992C"/>
<circle cx="673.031" cy="887.98" r="87.8537" fill="#20992C"/>
<rect x="931.186" y="283.817" width="305.46" height="175.707" fill="#20992C"/>
<rect x="985.25" y="1040.71" width="410.885" height="175.707" fill="#20992C"/>
<circle cx="1238" cy="371.671" r="87.8537" fill="#20992C"/>
<circle cx="1397.49" cy="1128.56" r="87.8537" fill="#20992C"/>
<circle cx="935.241" cy="371.671" r="87.8537" fill="#20992C"/>
<circle cx="983.898" cy="1128.56" r="87.8537" fill="#20992C"/>
<path fill-rule="evenodd" clip-rule="evenodd" d="M836.532 746.062H687.941C702.851 746.085 714.931 758.179 714.931 773.094C714.931 788.024 702.828 800.126 687.899 800.126L687.899 800.126L836.574 800.126C821.645 800.126 809.542 788.024 809.542 773.094C809.542 758.179 821.622 746.085 836.532 746.062Z" fill="#20992C"/>
<rect x="1788.1" y="621.716" width="340.602" height="173.004" fill="#D9D9D9"/>
<rect x="390.548" y="1029.9" width="448.729" height="173.004" fill="#D9D9D9"/>
<circle cx="839.277" cy="1116.4" r="86.5021" fill="#D9D9D9"/>
<circle cx="1788.1" cy="708.218" r="86.5021" fill="#D9D9D9"/>
<rect x="887.935" y="516.291" width="178.411" height="137.863" fill="#D9D9D9"/>
<circle cx="1064.99" cy="585.223" r="68.9313" fill="#D9D9D9"/>
<circle cx="886.583" cy="585.223" r="68.9313" fill="#D9D9D9"/>
<rect x="1401.54" y="959.615" width="283.835" height="137.863" fill="#D9D9D9"/>
<circle cx="1684.02" cy="1028.55" r="68.9313" fill="#D9D9D9"/>
<circle cx="1400.19" cy="1028.55" r="68.9313" fill="#D9D9D9"/>
<path fill-rule="evenodd" clip-rule="evenodd" d="M1893.52 837.971C1905.47 837.971 1915.15 828.289 1915.15 816.345C1915.15 804.414 1905.49 794.74 1893.56 794.72H1969.17C1957.25 794.74 1947.59 804.414 1947.59 816.345C1947.59 828.289 1957.27 837.971 1969.21 837.971H1893.52ZM1893.52 837.971C1893.52 837.971 1893.52 837.971 1893.52 837.971L1893.52 837.971V837.971Z" fill="#D9D9D9"/>
<rect x="1815.13" y="837.971" width="162.191" height="56.767" fill="#D9D9D9"/>
<circle cx="1813.78" cy="866.354" r="28.3835" fill="#D9D9D9"/>
<rect x="1377.21" y="324.365" width="186.52" height="89.2053" fill="#D9D9D9"/>
<rect x="904.154" y="821.752" width="254.1" height="121.644" fill="#D9D9D9"/>
<circle cx="1375.86" cy="368.967" r="44.6026" fill="#D9D9D9"/>
<circle cx="902.802" cy="882.574" r="60.8218" fill="#D9D9D9"/>
<circle cx="1562.38" cy="368.967" r="44.6026" fill="#D9D9D9"/>
<circle cx="1156.9" cy="882.574" r="60.8218" fill="#D9D9D9"/>
</g>
<rect x="404" width="1143" height="61" fill="#A00909"/>
<rect y="540" width="1920" height="540" fill="#750000"/>
<path d="M0 0H562.5L319.143 550.026C317.418 553.925 314.598 557.238 311.025 559.563L0 762V0Z" fill="#A00909"/>
<path d="M1919.5 0H1357L1600.36 550.026C1602.08 553.925 1604.9 557.238 1608.47 559.563L1919.5 762V0Z" fill="#A00909"/>
<path d="M0 49H440.177C462.641 49 477.647 72.1491 468.475 92.6562L278.345 517.78C275.889 523.272 271.888 527.931 266.829 531.188L0 703V49Z" fill="#660101"/>
<path d="M1919.5 49H1479.32C1456.86 49 1441.85 72.1491 1451.02 92.6562L1641.15 517.78C1643.61 523.272 1647.61 527.931 1652.67 531.188L1919.5 703V49Z" fill="#660101"/>
<path fill-rule="evenodd" clip-rule="evenodd" d="M534.708 62.1074C538.229 54.1398 546.119 49 554.83 49H960L960 100H626.041C610.207 100 595.863 109.34 589.459 123.822L432.688 478.308C420.993 504.752 440.356 534.487 469.27 534.487H960L960 573.487H342.494C326.593 573.487 315.944 557.138 322.371 542.594L534.708 62.1074ZM960 534.487V573.487H1577.48C1593.38 573.487 1604.03 557.124 1597.59 542.578L1384.8 62.0913C1381.27 54.1323 1373.39 49 1364.68 49H960V100H1293.96C1309.79 100 1324.14 109.34 1330.54 123.822L1487.31 478.308C1499.01 504.752 1479.64 534.487 1450.73 534.487H960Z" fill="#520000"/>
<path d="M291.379 640.098C311.074 626.992 334.203 620 357.86 620H1563.5C1587.24 620 1610.45 627.045 1630.19 640.242L1920 834H0L291.379 640.098Z" fill="#480000"/>
<rect y="834" width="1920" height="246" fill="#480000"/>
<path d="M362.692 770.243C385.46 741.655 420.014 725 456.561 725H1464.59C1501.23 725 1535.86 741.741 1558.63 770.456L1804 1080H116L362.692 770.243Z" fill="#2B0000"/>
<rect x="1500" y="847" width="176" height="66" fill="#A00909"/>
<rect x="244" y="847" width="176" height="66" fill="#A00909"/>
<path d="M330.083 750.386C341.554 729.777 363.29 717 386.877 717H1533.7C1557.36 717 1579.15 729.853 1590.59 750.557L1672.08 898.004C1683.5 918.666 1668.56 944 1644.95 944H1342.2C1333.59 944 1325.38 940.424 1319.51 934.127L1245.7 854.873C1239.84 848.576 1231.62 845 1223.02 845H1144.31H959.908H775.509H696.8C688.196 845 679.979 848.576 674.115 854.873L600.304 934.127C594.44 940.424 586.223 944 577.618 944H275.045C251.397 944 236.457 918.586 247.959 897.923L330.083 750.386Z" fill="#A00909"/>
<path d="M330.083 684.386C341.554 663.777 363.29 651 386.877 651H1533.7C1557.36 651 1579.15 663.853 1590.59 684.557L1672.08 832.004C1683.5 852.666 1668.56 878 1644.95 878H1342.2C1333.59 878 1325.38 874.424 1319.51 868.127L1245.7 788.873C1239.84 782.576 1231.62 779 1223.02 779H1144.31H959.908H775.509H696.8C688.196 779 679.979 782.576 674.115 788.873L600.304 868.127C594.44 874.424 586.223 878 577.618 878H275.045C251.397 878 236.457 852.586 247.959 831.923L330.083 684.386Z" fill="#6A0000"/>
<path d="M1451 761.5C1451 813.139 1409.59 855 1358.5 855C1307.41 855 1266 813.139 1266 761.5C1266 709.861 1307.41 668 1358.5 668C1409.59 668 1451 709.861 1451 761.5Z" fill="#3A0000"/>
<ellipse cx="561.5" cy="761.5" rx="92.5" ry="93.5" fill="#3A0000"/>
<circle cx="1358.5" cy="757.5" r="75.5" fill="black"/>
<circle cx="1358.5" cy="757.5" r="75.5" fill="black"/>
<circle cx="561.5" cy="757.5" r="75.5" fill="black"/>
<defs>
<filter id="filter0_d_7_2" x="473.05" y="227.05" width="1702.9" height="1702.9" filterUnits="userSpaceOnUse" color-interpolation-filters="sRGB">
<feFlood flood-opacity="0" result="BackgroundImageFix"/>
<feColorMatrix in="SourceAlpha" type="matrix" values="0 0 0 0 0 0 0 0 0 0 0 0 0 0 0 0 0 0 127 0" result="hardAlpha"/>
<feOffset dy="4"/>
<feGaussianBlur stdDeviation="2"/>
<feComposite in2="hardAlpha" operator="out"/>
<feColorMatrix type="matrix" values="0 0 0 0 0 0 0 0 0 0 0 0 0 0 0 0 0 0 0.25 0"/>
<feBlend mode="normal" in2="BackgroundImageFix" result="effect1_dropShadow_7_2"/>
<feBlend mode="normal" in="SourceGraphic" in2="effect1_dropShadow_7_2" result="shape"/>
</filter>
<filter id="filter1_d_7_2" x="470.347" y="227.05" width="1702.9" height="1702.9" filterUnits="userSpaceOnUse" color-interpolation-filters="sRGB">
<feFlood flood-opacity="0" result="BackgroundImageFix"/>
<feColorMatrix in="SourceAlpha" type="matrix" values="0 0 0 0 0 0 0 0 0 0 0 0 0 0 0 0 0 0 127 0" result="hardAlpha"/>
<feOffset dy="4"/>
<feGaussianBlur stdDeviation="2"/>
<feComposite in2="hardAlpha" operator="out"/>
<feColorMatrix type="matrix" values="0 0 0 0 0 0 0 0 0 0 0 0 0 0 0 0 0 0 0.25 0"/>
<feBlend mode="normal" in2="BackgroundImageFix" result="effect1_dropShadow_7_2"/>
<feBlend mode="normal" in="SourceGraphic" in2="effect1_dropShadow_7_2" result="shape"/>
</filter>
<linearGradient id="paint0_linear_7_2" x1="1920" y1="1080" x2="1261.78" y2="-519.305" gradientUnits="userSpaceOnUse">
<stop stop-color="#0E0F2F" stop-opacity="0.97"/>
<stop offset="0.93" stop-color="#0E0E1C"/>
</linearGradient>
</defs>
</svg>
