<svg width="641" height="778" viewBox="0 0 641 778" fill="none" xmlns="http://www.w3.org/2000/svg">
<circle cx="320.104" cy="299.051" r="175.051" fill="#CAA46C"/>
<path d="M130.29 144.99C130.29 133.398 139.688 124 151.28 124H330.361C424.868 124 501.482 200.613 501.482 295.121C501.482 311.269 488.391 324.359 472.244 324.359H309.659C210.596 324.359 130.29 244.053 130.29 144.99Z" fill="#643921"/>
<rect x="486.383" y="495.209" width="107" height="236" rx="45" transform="rotate(-5.57081 486.383 495.209)" fill="#B4B4B4"/>
<rect width="107" height="236" rx="45" transform="matrix(-0.995277 -0.0970759 -0.0970759 0.995277 148.605 495.387)" fill="#B4B4B4"/>
<rect width="107" height="236" rx="45" transform="matrix(-0.995277 -0.0970759 -0.0970759 0.995277 129.405 696.061)" fill="#B4B4B4"/>
<rect x="505.583" y="695.883" width="107" height="236" rx="45" transform="rotate(-5.57081 505.583 695.883)" fill="#B4B4B4"/>
<ellipse cx="560.295" cy="707.034" rx="52" ry="32" transform="rotate(-5.57081 560.295 707.034)" fill="#838383"/>
<ellipse cx="52" cy="32" rx="52" ry="32" transform="matrix(-0.995277 -0.0970759 -0.0970759 0.995277 129.554 680.412)" fill="#838383"/>
<path d="M79 515C79 479.654 107.654 451 143 451H491C526.346 451 555 479.654 555 515V1115H79V515Z" fill="#E1E1E1"/>
<rect x="67" y="640" width="505" height="45" rx="22.5" fill="#A8A8A8"/>
<rect x="97.352" y="449.038" width="438.624" height="35.2179" rx="16" fill="#696969"/>
<path fill-rule="evenodd" clip-rule="evenodd" d="M515.52 449.038C558.106 401.458 584 338.626 584 269.747C584 121.217 463.593 0.80957 315.063 0.80957C166.533 0.80957 46.1259 121.217 46.1259 269.747C46.1259 338.626 72.0203 401.458 114.606 449.038H515.52Z" fill="#C6C6C6" fill-opacity="0.5"/>
</svg>
