<svg width="159" height="144" viewBox="0 0 159 144" fill="none" xmlns="http://www.w3.org/2000/svg">
<path d="M101.561 10.5338L71.9818 59.5782L17.6888 95.9963L8.94375 75.7238L0 53.6753L14.8318 19.6306L43.2707 10.5338L76.2 0L101.561 10.5338Z" fill="#565656"/>
<mask id="mask0_1_34" style="mask-type:alpha" maskUnits="userSpaceOnUse" x="15" y="62" width="11" height="19">
<ellipse cx="20.3379" cy="71.696" rx="9.34125" ry="4.64446" transform="rotate(-101.582 20.3379 71.696)" fill="#1C1C1C"/>
</mask>
<g mask="url(#mask0_1_34)">
<ellipse cx="20.3379" cy="71.696" rx="9.34125" ry="4.64446" transform="rotate(-101.582 20.3379 71.696)" fill="#1C1C1C"/>
<ellipse cx="23.6373" cy="71.0198" rx="9.34125" ry="5.18239" transform="rotate(-101.582 23.6373 71.0198)" fill="#353535"/>
</g>
<mask id="mask1_1_34" style="mask-type:alpha" maskUnits="userSpaceOnUse" x="44" y="37" width="19" height="22">
<ellipse cx="53.5247" cy="48.0928" rx="11.54" ry="7.03571" transform="rotate(-57.011 53.5247 48.0928)" fill="#1C1C1C"/>
</mask>
<g mask="url(#mask1_1_34)">
<ellipse cx="53.5247" cy="48.0928" rx="11.54" ry="7.03571" transform="rotate(-57.011 53.5247 48.0928)" fill="#1C1C1C"/>
<ellipse cx="57.5821" cy="50.7266" rx="11.54" ry="7.19234" transform="rotate(-57.011 57.5821 50.7266)" fill="#353535"/>
</g>
<mask id="mask2_1_34" style="mask-type:alpha" maskUnits="userSpaceOnUse" x="58" y="13" width="28" height="12">
<ellipse cx="71.6754" cy="18.7658" rx="13.618" ry="5.73434" transform="rotate(0.225162 71.6754 18.7658)" fill="#1C1C1C"/>
</mask>
<g mask="url(#mask2_1_34)">
<ellipse cx="71.6754" cy="18.7658" rx="13.618" ry="5.73434" transform="rotate(0.225162 71.6754 18.7658)" fill="#1C1C1C"/>
<ellipse cx="71.6595" cy="22.8221" rx="13.618" ry="5.92026" transform="rotate(0.225162 71.6595 22.8221)" fill="#353535"/>
</g>
<mask id="mask3_1_34" style="mask-type:alpha" maskUnits="userSpaceOnUse" x="17" y="22" width="19" height="17">
<ellipse cx="26.8239" cy="30.1896" rx="10.2792" ry="6.53694" transform="rotate(-38.3888 26.8239 30.1896)" fill="#1C1C1C"/>
</mask>
<g mask="url(#mask3_1_34)">
<ellipse cx="26.8239" cy="30.1896" rx="10.2792" ry="6.53694" transform="rotate(-38.3888 26.8239 30.1896)" fill="#1C1C1C"/>
<ellipse cx="29.7458" cy="33.8776" rx="10.2792" ry="6.75361" transform="rotate(-38.3888 29.7458 33.8776)" fill="#353535"/>
</g>
<path d="M71.9475 59.4262L17.6888 95.9962L28.62 123.622L67.5365 143.1L95.2386 135.549L123.424 123.622L71.9475 59.4262Z" fill="#3F3F3F"/>
<mask id="mask4_1_34" style="mask-type:alpha" maskUnits="userSpaceOnUse" x="30" y="98" width="25" height="25">
<ellipse cx="42.5458" cy="110.707" rx="15.429" ry="6.47007" transform="rotate(-134.756 42.5458 110.707)" fill="#1C1C1C"/>
</mask>
<g mask="url(#mask4_1_34)">
<ellipse cx="42.5458" cy="110.707" rx="15.429" ry="6.47007" transform="rotate(-134.756 42.5458 110.707)" fill="#1C1C1C"/>
<ellipse cx="45.5995" cy="107.679" rx="15.429" ry="6.23016" transform="rotate(-134.756 45.5995 107.679)" fill="#2A2A2A"/>
</g>
<mask id="mask5_1_34" style="mask-type:alpha" maskUnits="userSpaceOnUse" x="58" y="72" width="24" height="13">
<ellipse cx="70.0765" cy="78.4477" rx="11.2557" ry="5.31462" transform="rotate(-169.395 70.0765 78.4477)" fill="#1C1C1C"/>
</mask>
<g mask="url(#mask5_1_34)">
<ellipse cx="70.0765" cy="78.4477" rx="11.2557" ry="5.31462" transform="rotate(-169.395 70.0765 78.4477)" fill="#1C1C1C"/>
<ellipse cx="70.7167" cy="75.0281" rx="11.2557" ry="4.33659" transform="rotate(-169.395 70.7167 75.0281)" fill="#2B2B2B"/>
</g>
<mask id="mask6_1_34" style="mask-type:alpha" maskUnits="userSpaceOnUse" x="70" y="115" width="37" height="14">
<ellipse cx="88.8462" cy="121.847" rx="18.1381" ry="5.8825" transform="rotate(169.953 88.8462 121.847)" fill="#1C1C1C"/>
</mask>
<g mask="url(#mask6_1_34)">
<ellipse cx="88.8462" cy="121.847" rx="18.1381" ry="5.8825" transform="rotate(169.953 88.8462 121.847)" fill="#1C1C1C"/>
<ellipse cx="88.1587" cy="117.967" rx="18.1381" ry="4.71034" transform="rotate(169.953 88.1587 117.967)" fill="#2A2A2A"/>
</g>
<mask id="mask7_1_34" style="mask-type:alpha" maskUnits="userSpaceOnUse" x="65" y="95" width="20" height="12">
<ellipse cx="75.0485" cy="101.277" rx="9.60516" ry="5.40476" transform="rotate(172.112 75.0485 101.277)" fill="#1C1C1C"/>
</mask>
<g mask="url(#mask7_1_34)">
<ellipse cx="75.0485" cy="101.277" rx="9.60516" ry="5.40476" transform="rotate(172.112 75.0485 101.277)" fill="#1C1C1C"/>
<ellipse cx="74.5245" cy="97.4949" rx="9.60516" ry="4.13012" transform="rotate(172.112 74.5245 97.4949)" fill="#2A2A2A"/>
</g>
<path d="M155.867 37.7283L101.561 10.5338L71.9475 59.4263L123.424 123.623L144.151 109.313L159 95.899L155.867 37.7283Z" fill="#4D4D4D"/>
<mask id="mask8_1_34" style="mask-type:alpha" maskUnits="userSpaceOnUse" x="116" y="28" width="25" height="34">
<ellipse cx="128.429" cy="45.0698" rx="19.1729" ry="6.55538" transform="rotate(56.7671 128.429 45.0698)" fill="#1C1C1C"/>
</mask>
<g mask="url(#mask8_1_34)">
<ellipse cx="128.429" cy="45.0698" rx="19.1729" ry="6.55538" transform="rotate(56.7671 128.429 45.0698)" fill="#1C1C1C"/>
<ellipse cx="125.814" cy="46.7831" rx="19.1729" ry="6.51411" transform="rotate(56.7671 125.814 46.7831)" fill="#353535"/>
</g>
<mask id="mask9_1_34" style="mask-type:alpha" maskUnits="userSpaceOnUse" x="91" y="52" width="13" height="25">
<ellipse cx="97.5897" cy="64.8907" rx="12.0888" ry="6.15636" transform="rotate(82.1247 97.5897 64.8907)" fill="#1C1C1C"/>
</mask>
<g mask="url(#mask9_1_34)">
<ellipse cx="97.5897" cy="64.8907" rx="12.0888" ry="6.15636" transform="rotate(82.1247 97.5897 64.8907)" fill="#1C1C1C"/>
<ellipse cx="93.7498" cy="65.4219" rx="12.0888" ry="5.17705" transform="rotate(82.1247 93.7498 65.4219)" fill="#353535"/>
</g>
<mask id="mask10_1_34" style="mask-type:alpha" maskUnits="userSpaceOnUse" x="118" y="79" width="25" height="28">
<ellipse cx="130.412" cy="92.8982" rx="15.5391" ry="9.49369" transform="rotate(125.294 130.412 92.8982)" fill="#1C1C1C"/>
</mask>
<g mask="url(#mask10_1_34)">
<ellipse cx="130.412" cy="92.8982" rx="15.5391" ry="9.49369" transform="rotate(125.294 130.412 92.8982)" fill="#1C1C1C"/>
<ellipse cx="127.714" cy="90.9881" rx="15.5391" ry="8.30246" transform="rotate(125.294 127.714 90.9881)" fill="#353535"/>
</g>
</svg>
