<svg width="476" height="238" viewBox="0 0 476 238" fill="none" xmlns="http://www.w3.org/2000/svg">
<path fill-rule="evenodd" clip-rule="evenodd" d="M0 119C0 53.2781 53.2781 0 119 0H357C422.722 0 476 53.2781 476 119C476 184.722 422.722 238 357 238H119C53.2781 238 0 184.722 0 119ZM369.09 36.4155C362.489 35.3841 357 40.8672 357 47.5487V191.35C357 198.031 362.489 203.514 369.09 202.483C409.296 196.201 440.057 161.417 440.057 119.449C440.057 77.4812 409.296 42.6978 369.09 36.4155ZM117.314 47.5487C117.314 40.8672 111.825 35.384 105.224 36.4155C65.0184 42.6977 34.2575 77.4812 34.2575 119.449C34.2575 161.417 65.0184 196.201 105.224 202.483C111.825 203.514 117.314 198.031 117.314 191.35V47.5487Z" fill="#1D1D1D"/>
<circle cx="236.5" cy="117.5" r="51.5" fill="#696969"/>
</svg>
