<svg width="721" height="721" viewBox="0 0 721 721" fill="none" xmlns="http://www.w3.org/2000/svg">
<circle cx="360.5" cy="360.5" r="360.5" fill="#14183F"/>
<mask id="mask0_1_75" style="mask-type:alpha" maskUnits="userSpaceOnUse" x="47" y="47" width="627" height="627">
<path d="M674 360.5C674 533.641 533.641 674 360.5 674C187.359 674 47 533.641 47 360.5C47 187.359 187.359 47 360.5 47C533.641 47 674 187.359 674 360.5Z" fill="#124E94"/>
</mask>
<g mask="url(#mask0_1_75)">
<g filter="url(#filter0_d_1_75)">
<path d="M674 360.5C674 533.641 533.641 674 360.5 674C187.359 674 47 533.641 47 360.5C47 187.359 187.359 47 360.5 47C533.641 47 674 187.359 674 360.5Z" fill="#124E94"/>
</g>
<g filter="url(#filter1_d_1_75)">
<path d="M673 360.5C673 533.641 532.641 674 359.5 674C186.359 674 46 533.641 46 360.5C46 187.359 186.359 47 359.5 47C532.641 47 673 187.359 673 360.5Z" fill="#124E94"/>
</g>
<path d="M186 -120H759V847H186C186 847 433 740.618 433 376.051C433 11.4833 186 -120 186 -120Z" fill="#0D3461" fill-opacity="0.45"/>
<rect x="497" y="278" width="201" height="87" fill="#20992C"/>
<circle cx="496.5" cy="321.5" r="43.5" fill="#20992C"/>
<rect x="541" y="47" width="201" height="87" fill="#20992C"/>
<circle cx="540.5" cy="90.5" r="43.5" fill="#20992C"/>
<rect x="365" y="601" width="230" height="99" fill="#20992C"/>
<circle cx="364.5" cy="650.5" r="49.5" fill="#20992C"/>
<rect x="47" y="169" width="184" height="70" fill="#20992C"/>
<circle cx="229" cy="204" r="35" fill="#20992C"/>
<rect x="18" y="447" width="289" height="110" fill="#20992C"/>
<circle cx="306" cy="502" r="55" fill="#20992C"/>
<rect x="393" y="181" width="87" height="50" fill="#20992C"/>
<rect x="118" y="259" width="70" height="65" fill="#20992C"/>
<circle cx="480" cy="206" r="25" fill="#20992C"/>
<circle cx="187.5" cy="291.5" r="32.5" fill="#20992C"/>
<circle cx="394" cy="206" r="25" fill="#20992C"/>
<circle cx="119.5" cy="291.5" r="32.5" fill="#20992C"/>
<rect x="215" y="68" width="113" height="65" fill="#20992C"/>
<rect x="235" y="348" width="152" height="65" fill="#20992C"/>
<circle cx="328.5" cy="100.5" r="32.5" fill="#20992C"/>
<circle cx="387.5" cy="380.5" r="32.5" fill="#20992C"/>
<circle cx="216.5" cy="100.5" r="32.5" fill="#20992C"/>
<circle cx="234.5" cy="380.5" r="32.5" fill="#20992C"/>
<rect x="512" y="479" width="162" height="86" fill="#20992C"/>
<circle cx="666.5" cy="551.5" r="32.5" fill="#20992C"/>
<circle cx="513" cy="522" r="43" fill="#20992C"/>
<path fill-rule="evenodd" clip-rule="evenodd" d="M135 249C135 254.523 130.523 259 125 259H180C174.477 259 170 254.523 170 249C170 243.477 174.477 239 180 239H125C130.523 239 135 243.477 135 249Z" fill="#20992C"/>
<path fill-rule="evenodd" clip-rule="evenodd" d="M256 430C256 439.389 248.389 447 239 447H306.5H307V446.993C306.834 446.998 306.667 447 306.5 447C297.111 447 289.5 439.389 289.5 430C289.5 420.611 297.111 413 306.5 413C306.667 413 306.834 413.002 307 413.007V413H306.5H239C248.389 413 256 420.611 256 430Z" fill="#20992C"/>
<rect x="532" y="193" width="126" height="64" fill="#D9D9D9"/>
<rect x="15" y="344" width="166" height="64" fill="#D9D9D9"/>
<circle cx="658" cy="225" r="32" fill="#D9D9D9"/>
<circle cx="181" cy="376" r="32" fill="#D9D9D9"/>
<circle cx="532" cy="225" r="32" fill="#D9D9D9"/>
<rect x="199" y="154" width="66" height="51" fill="#D9D9D9"/>
<circle cx="264.5" cy="179.5" r="25.5" fill="#D9D9D9"/>
<circle cx="198.5" cy="179.5" r="25.5" fill="#D9D9D9"/>
<rect x="389" y="318" width="105" height="51" fill="#D9D9D9"/>
<circle cx="493.5" cy="343.5" r="25.5" fill="#D9D9D9"/>
<circle cx="388.5" cy="343.5" r="25.5" fill="#D9D9D9"/>
<rect x="520" y="435" width="66" height="64" fill="#D9D9D9"/>
<circle cx="586" cy="467" r="32" fill="#D9D9D9"/>
<circle cx="520" cy="467" r="32" fill="#D9D9D9"/>
<rect x="238" y="519" width="66" height="64" fill="#D9D9D9"/>
<circle cx="304" cy="551" r="32" fill="#D9D9D9"/>
<circle cx="238" cy="551" r="32" fill="#D9D9D9"/>
<path fill-rule="evenodd" clip-rule="evenodd" d="M108 424C112.418 424 116 420.418 116 416C116 411.582 112.418 408 108 408H136C131.582 408 128 411.582 128 416C128 420.418 131.582 424 136 424H108Z" fill="#D9D9D9"/>
<path fill-rule="evenodd" clip-rule="evenodd" d="M571 273C575.418 273 579 269.418 579 265C579 260.582 575.418 257 571 257H599C594.582 257 591 260.582 591 265C591 269.418 594.582 273 599 273H571Z" fill="#D9D9D9"/>
<path fill-rule="evenodd" clip-rule="evenodd" d="M255 519C259.418 519 263 515.418 263 511C263 506.582 259.418 503 255 503H283C278.582 503 275 506.582 275 511C275 515.418 278.582 519 283 519H255Z" fill="#D9D9D9"/>
<rect x="93" y="424" width="60" height="21" fill="#D9D9D9"/>
<rect x="542" y="273" width="60" height="21" fill="#D9D9D9"/>
<rect x="257" y="482" width="60" height="21" fill="#D9D9D9"/>
<circle cx="152.5" cy="434.5" r="10.5" fill="#D9D9D9"/>
<circle cx="601.5" cy="283.5" r="10.5" fill="#D9D9D9"/>
<circle cx="316.5" cy="492.5" r="10.5" fill="#D9D9D9"/>
<circle cx="92.5" cy="434.5" r="10.5" fill="#D9D9D9"/>
<circle cx="541.5" cy="283.5" r="10.5" fill="#D9D9D9"/>
<circle cx="256.5" cy="492.5" r="10.5" fill="#D9D9D9"/>
<rect x="380" y="83" width="69" height="33" fill="#D9D9D9"/>
<rect x="423" y="583" width="69" height="33" fill="#D9D9D9"/>
<rect x="205" y="267" width="94" height="45" fill="#D9D9D9"/>
<circle cx="379.5" cy="99.5" r="16.5" fill="#D9D9D9"/>
<circle cx="422.5" cy="599.5" r="16.5" fill="#D9D9D9"/>
<circle cx="204.5" cy="289.5" r="22.5" fill="#D9D9D9"/>
<circle cx="448.5" cy="99.5" r="16.5" fill="#D9D9D9"/>
<circle cx="491.5" cy="599.5" r="16.5" fill="#D9D9D9"/>
<circle cx="298.5" cy="289.5" r="22.5" fill="#D9D9D9"/>
</g>
<defs>
<filter id="filter0_d_1_75" x="43" y="47" width="635" height="635" filterUnits="userSpaceOnUse" color-interpolation-filters="sRGB">
<feFlood flood-opacity="0" result="BackgroundImageFix"/>
<feColorMatrix in="SourceAlpha" type="matrix" values="0 0 0 0 0 0 0 0 0 0 0 0 0 0 0 0 0 0 127 0" result="hardAlpha"/>
<feOffset dy="4"/>
<feGaussianBlur stdDeviation="2"/>
<feComposite in2="hardAlpha" operator="out"/>
<feColorMatrix type="matrix" values="0 0 0 0 0 0 0 0 0 0 0 0 0 0 0 0 0 0 0.25 0"/>
<feBlend mode="normal" in2="BackgroundImageFix" result="effect1_dropShadow_1_75"/>
<feBlend mode="normal" in="SourceGraphic" in2="effect1_dropShadow_1_75" result="shape"/>
</filter>
<filter id="filter1_d_1_75" x="42" y="47" width="635" height="635" filterUnits="userSpaceOnUse" color-interpolation-filters="sRGB">
<feFlood flood-opacity="0" result="BackgroundImageFix"/>
<feColorMatrix in="SourceAlpha" type="matrix" values="0 0 0 0 0 0 0 0 0 0 0 0 0 0 0 0 0 0 127 0" result="hardAlpha"/>
<feOffset dy="4"/>
<feGaussianBlur stdDeviation="2"/>
<feComposite in2="hardAlpha" operator="out"/>
<feColorMatrix type="matrix" values="0 0 0 0 0 0 0 0 0 0 0 0 0 0 0 0 0 0 0.25 0"/>
<feBlend mode="normal" in2="BackgroundImageFix" result="effect1_dropShadow_1_75"/>
<feBlend mode="normal" in="SourceGraphic" in2="effect1_dropShadow_1_75" result="shape"/>
</filter>
</defs>
</svg>
