<svg width="125" height="147" viewBox="0 0 125 147" fill="none" xmlns="http://www.w3.org/2000/svg">
<path d="M121.411 59.9005C125.92 34.4471 130.037 11.2024 108.226 0H63V147C75.1479 136.053 75.3636 125.08 82.9226 110.511C94.8731 87.4765 116.097 89.9073 121.31 60.4681L121.411 59.9005Z" fill="#C8CC03"/>
<path d="M3.6605 60.0957C-0.935654 34.566 -5.1367 11.231 17.0908 0H63V147C50.6517 136.053 50.4324 125.08 42.7487 110.511C30.6009 87.4765 9.02689 89.9073 3.72754 60.4681L3.6605 60.0957Z" fill="#C8CC03"/>
<path d="M109.987 52.2411C113.651 30.0594 113.988 9.75015 96.2823 0H63V127C72.7888 117.543 72.9626 108.062 79.0537 95.4752C88.6835 75.5749 105.786 77.675 109.987 52.2411Z" fill="#CC7C03"/>
<path d="M15.0543 52.2411C11.3158 30.0594 10.9712 9.75015 29.0385 0H63V127C53.0114 117.543 52.834 108.062 46.6187 95.4752C36.7923 75.5749 19.341 77.675 15.0543 52.2411Z" fill="#CC7C03"/>
</svg>
