<svg width="1920" height="1080" viewBox="0 0 1920 1080" fill="none" xmlns="http://www.w3.org/2000/svg">
<rect width="1920" height="1080" fill="#0257BA"/>
<rect y="806" width="1920" height="274" fill="#20992C"/>
<path d="M660 571C660 540.072 685.072 515 716 515H1920V884H716C685.072 884 660 858.928 660 828V571Z" fill="#214A1A"/>
<rect x="338" y="799" width="364" height="41" fill="#C7C7C7"/>
<path d="M648 765C648 760.582 651.582 757 656 757H694C698.418 757 702 760.582 702 765V874C702 878.418 698.418 882 694 882H656C651.582 882 648 878.418 648 874V765Z" fill="#DADADA"/>
<rect x="435" y="757" width="54" height="125" rx="8" fill="#D9D9D9"/>
<rect x="506" y="757" width="54" height="125" rx="8" fill="#D9D9D9"/>
<path d="M577 765C577 760.582 580.582 757 585 757H623C627.418 757 631 760.582 631 765V874C631 878.418 627.418 882 623 882H585C580.582 882 577 878.418 577 874V765Z" fill="#D9D9D9"/>
<rect x="364" y="757" width="54" height="125" rx="8" fill="#D9D9D9"/>
<path fill-rule="evenodd" clip-rule="evenodd" d="M239 378.995C238.667 378.998 238.334 379 238 379C186.085 379 144 336.915 144 285C144 233.085 186.085 191 238 191C238.334 191 238.667 191.002 239 191.005V191H461H462V191.005C513.454 191.542 555 233.419 555 285C555 336.581 513.454 378.458 462 378.995V379H461H239V378.995Z" fill="#D9D9D9"/>
<path fill-rule="evenodd" clip-rule="evenodd" d="M1094 22.0023C1093.83 22.0008 1093.67 22 1093.5 22C1064.51 22 1041 45.5051 1041 74.5C1041 103.495 1064.51 127 1093.5 127C1093.67 127 1093.83 126.999 1094 126.998V127H1240.5H1241V126.998C1269.76 126.729 1293 103.328 1293 74.5C1293 45.6719 1269.76 22.2707 1241 22.0023V22H1240.5H1094V22.0023Z" fill="#D9D9D9"/>
<path fill-rule="evenodd" clip-rule="evenodd" d="M2006 202H1744C1699.82 202 1664 166.183 1664 122C1664 77.8172 1699.82 42 1744 42H2006C2050.18 42 2086 77.8172 2086 122C2086 166.183 2050.18 202 2006 202Z" fill="#D9D9D9"/>
<path fill-rule="evenodd" clip-rule="evenodd" d="M608 62.9977C607.834 62.9992 607.667 63 607.5 63C578.505 63 555 39.4949 555 10.5C555 -18.4949 578.505 -42 607.5 -42C607.667 -42 607.834 -41.9992 608 -41.9977V-42H880V-41.9977C880.167 -41.9992 880.333 -42 880.5 -42C909.495 -42 933 -18.4949 933 10.5C933 39.4949 909.495 63 880.5 63C880.411 63 880.323 62.9998 880.235 62.9993C880.156 62.999 880.078 62.9984 880 62.9977V63H854C839.088 63 827 75.0883 827 90C827 104.912 839.088 117 854 117H874C900.51 117 922 138.49 922 165C922 191.51 900.51 213 874 213H714C687.49 213 666 191.51 666 165C666 138.49 687.49 117 714 117H740C754.912 117 767 104.912 767 90C767 75.0883 754.912 63 740 63H608V62.9977Z" fill="#D9D9D9"/>
<path fill-rule="evenodd" clip-rule="evenodd" d="M1419 218H1393C1366.49 218 1345 196.51 1345 170C1345 143.49 1366.49 122 1393 122H1553C1579.51 122 1601 143.49 1601 170C1601 196.51 1579.51 218 1553 218H1533C1518.09 218 1506 230.088 1506 245C1506 259.912 1518.09 272 1533 272H1559V272.002C1559.1 272.001 1559.19 272.001 1559.29 272L1559.5 272C1588.49 272 1612 295.505 1612 324.5C1612 353.495 1588.49 377 1559.5 377C1559.33 377 1559.17 376.999 1559 376.998V377H1287V376.998C1286.83 376.999 1286.67 377 1286.5 377C1257.51 377 1234 353.495 1234 324.5C1234 295.505 1257.51 272 1286.5 272C1286.67 272 1286.83 272.001 1287 272.002V272H1419C1433.91 272 1446 259.912 1446 245C1446 230.088 1433.91 218 1419 218Z" fill="#D9D9D9"/>
<path d="M0 1001H906C914.837 1001 922 1008.16 922 1017V1085H0V1001Z" fill="#D8956F"/>
<path d="M-0.0715942 1072.01H922V1085.01H-0.0715942V1072.01Z" fill="#7E4F34"/>
<path d="M338 0H357V1014C357 1022.28 350.284 1029 342 1029H338V0Z" fill="#541B1B"/>
<path d="M0 0H338V562H0V0Z" fill="#A62727"/>
<rect x="-56.2827" y="58.5593" width="227.348" height="273.806" rx="20" fill="#252525"/>
<rect x="-44.2122" y="68.8496" width="203.487" height="253.226" rx="13" fill="#233072"/>
<rect x="51.9783" y="64.7122" width="12.6304" height="261.5" fill="#252525"/>
<rect x="-45.4565" y="200.077" width="10.7677" height="205.696" transform="rotate(-90 -45.4565 200.077)" fill="#252525"/>
<path d="M0 562H339V1029H0V562Z" fill="#842020"/>
<path d="M0 543H913C917.971 543 922 547.029 922 552V581C922 585.971 917.971 590 913 590H0V543Z" fill="#D8956F"/>
<rect x="198" y="594" width="69" height="39" rx="16" fill="#691818"/>
<path d="M0 562H922V599C922 603.971 917.971 608 913 608H0V562Z" fill="#7E4F34"/>
<path d="M0 651H228C235.18 651 241 656.82 241 664V978C241 985.18 235.18 991 228 991H0V651Z" fill="#8C8C8C"/>
<path d="M0 660H219C226.18 660 232 665.82 232 673V969C232 976.18 226.18 982 219 982H0V660Z" fill="#AFAFAF"/>
<rect width="9" height="322" transform="matrix(-1 0 0 1 48 660)" fill="#252525"/>
<rect x="185.5" y="790.76" width="23.4565" height="56.9148" rx="11.7283" fill="#545454"/>
<path d="M841 608H869V1016C869 1018.76 866.761 1021 864 1021H846C843.239 1021 841 1018.76 841 1016V608Z" fill="#522810"/>
<rect x="357" y="827" width="484" height="155" fill="#CC7D51"/>
<rect x="63" y="429" width="69" height="39" rx="16" fill="#751B1B"/>
<rect x="20" y="476" width="69" height="39" rx="16" fill="#751B1B"/>
<rect x="263" y="240" width="69" height="39" rx="16" fill="#751B1B"/>
<rect x="-18" y="427" width="69" height="39" rx="16" fill="#751B1B"/>
<rect x="225" y="191" width="69" height="39" rx="16" fill="#751B1B"/>
<rect x="51" y="-15" width="69" height="39" rx="16" fill="#751B1B"/>
</svg>
