<svg width="593" height="840" viewBox="0 0 593 840" fill="none" xmlns="http://www.w3.org/2000/svg">
<path d="M480 642L497.512 533C497.512 533 556.249 537 584.705 642C613.162 747 559.532 854 556.249 838C552.965 822 556.326 755.886 537.46 713.5C521.677 678.038 480 642 480 642Z" fill="#740101"/>
<path d="M315 642.143L297.488 533C297.488 533 238.751 537.005 210.295 642.143C181.838 747.281 235.468 854.422 238.751 838.401C242.035 822.38 238.674 756.179 257.54 713.737C273.323 678.229 315 642.143 315 642.143Z" fill="#740101"/>
<path d="M269.923 493.688C269.948 491.479 271.76 489.71 273.969 489.735L299.967 490.039L299.617 520.037L269.619 519.687L269.923 493.688Z" fill="#525252"/>
<path d="M241.045 521.98C241.071 519.771 242.883 518.001 245.092 518.027L271.09 518.33L270.739 548.328L240.741 547.978L241.045 521.98Z" fill="#525252"/>
<path d="M212.168 550.271C212.194 548.062 214.005 546.292 216.214 546.318L242.213 546.622L241.862 576.62L211.864 576.269L212.168 550.271Z" fill="#525252"/>
<path d="M182.575 579.261C182.601 577.052 184.413 575.282 186.622 575.308L212.62 575.612L212.27 605.61L182.272 605.259L182.575 579.261Z" fill="#525252"/>
<path d="M152.983 608.251C153.009 606.042 154.82 604.272 157.029 604.298L183.027 604.602L182.677 634.6L152.679 634.249L152.983 608.251Z" fill="#525252"/>
<path d="M124.106 636.543C124.131 634.334 125.943 632.564 128.152 632.59L154.15 632.893L153.8 662.891L123.802 662.541L124.106 636.543Z" fill="#525252"/>
<path d="M95.2448 663.42C95.2706 661.211 97.0823 659.441 99.2913 659.467L125.289 659.77L124.939 689.768L94.9411 689.418L95.2448 663.42Z" fill="#525252"/>
<path d="M66.3675 691.711C66.3933 689.502 68.205 687.732 70.4139 687.758L96.4122 688.062L96.0618 718.06L66.0638 717.709L66.3675 691.711Z" fill="#525252"/>
<path d="M37.4901 720.002C37.5159 717.793 39.3275 716.023 41.5365 716.049L67.5347 716.353L67.1843 746.351L37.1864 746L37.4901 720.002Z" fill="#525252"/>
<path d="M10.0269 748.31C10.0527 746.101 11.8644 744.331 14.0734 744.357L40.0716 744.661L39.7212 774.659L9.72325 774.308L10.0269 748.31Z" fill="#525252"/>
<path d="M306.959 482C322.01 497.407 321.722 522.099 306.315 537.151L41.2019 796.142C33.4982 803.667 21.1524 803.523 13.6266 795.82C6.10084 788.116 6.24504 775.77 13.9487 768.244L306.959 482Z" fill="#540000"/>
<path fill-rule="evenodd" clip-rule="evenodd" d="M507.736 533C519.951 479.666 527 416.805 527 349.5C527 156.476 453.825 0 397.5 0C325.979 0 268 156.476 268 349.5C268 416.805 275.049 479.666 287.264 533H507.736Z" fill="#910000"/>
<mask id="mask0_4_4" style="mask-type:alpha" maskUnits="userSpaceOnUse" x="287" y="533" width="221" height="172">
<path fill-rule="evenodd" clip-rule="evenodd" d="M287.263 533H398H507.734L470.628 695.669C469.383 701.128 464.528 705 458.929 705H398H336.247C330.653 705 325.8 701.134 324.55 695.681L287.263 533Z" fill="#900000"/>
</mask>
<g mask="url(#mask0_4_4)">
<rect x="260" y="647" width="263" height="115" fill="#363636"/>
<path fill-rule="evenodd" clip-rule="evenodd" d="M287.263 533H398H507.734L470.628 695.669C469.383 701.128 464.528 705 458.929 705H398H336.247C330.653 705 325.8 701.134 324.55 695.681L287.263 533Z" fill="#900000"/>
</g>
<mask id="mask1_4_4" style="mask-type:alpha" maskUnits="userSpaceOnUse" x="268" y="0" width="259" height="533">
<path fill-rule="evenodd" clip-rule="evenodd" d="M507.736 533C519.951 479.666 527 416.805 527 349.5C527 156.476 453.825 0 397.5 0C325.979 0 268 156.476 268 349.5C268 416.805 275.049 479.666 287.264 533H507.736Z" fill="#910000"/>
</mask>
<g mask="url(#mask1_4_4)">
<rect x="250" y="427" width="295" height="50" fill="#420000"/>
</g>
<mask id="mask2_4_4" style="mask-type:alpha" maskUnits="userSpaceOnUse" x="311" y="647" width="173" height="58">
<mask id="mask3_4_4" style="mask-type:alpha" maskUnits="userSpaceOnUse" x="287" y="533" width="221" height="172">
<path fill-rule="evenodd" clip-rule="evenodd" d="M287.263 533H398H507.734L470.628 695.669C469.383 701.128 464.528 705 458.929 705H398H336.247C330.653 705 325.8 701.134 324.55 695.681L287.263 533Z" fill="#900000"/>
</mask>
<g mask="url(#mask3_4_4)">
<rect x="311" y="647" width="173" height="58" fill="#D9D9D9"/>
</g>
</mask>
<g mask="url(#mask2_4_4)">
<rect x="315" y="687" width="165" height="18" fill="#272727"/>
</g>
<circle cx="398" cy="148" r="59" fill="#787878"/>
<circle cx="398" cy="148" r="40" fill="#BEBEBE"/>
</svg>
