<svg width="127" height="303" viewBox="0 0 127 303" fill="none" xmlns="http://www.w3.org/2000/svg">
<rect x="87.5175" y="107.361" width="19.8752" height="43.894" rx="9.93762" transform="rotate(-13.6136 87.5175 107.361)" fill="#B4B4B4"/>
<rect width="24.4959" height="43.894" rx="12.2479" transform="matrix(1 0 0 -1 24.658 259.479)" fill="#B4B4B4"/>
<rect width="24.4959" height="43.894" rx="12.2479" transform="matrix(1 0 0 -1 62.8185 259.128)" fill="#B4B4B4"/>
<rect width="24.4959" height="45.5239" rx="12.2479" transform="matrix(1 0 0 -1 24.3974 302.098)" fill="#B4B4B4"/>
<rect width="24.4959" height="45.5239" rx="12.2479" transform="matrix(1 0 0 -1 62.5579 301.747)" fill="#B4B4B4"/>
<rect x="97.5383" y="144.631" width="19.8752" height="43.894" rx="9.93762" transform="rotate(-7.33624 97.5383 144.631)" fill="#B4B4B4"/>
<ellipse cx="107.899" cy="145.129" rx="10.3351" ry="6.36008" transform="rotate(-8.42562 107.899 145.129)" fill="#838383"/>
<ellipse cx="10.3351" cy="6.36008" rx="10.3351" ry="6.36008" transform="matrix(1 0 0 -1 26.3025 264.255)" fill="#838383"/>
<ellipse cx="10.3351" cy="6.36008" rx="10.3351" ry="6.36008" transform="matrix(1 0 0 -1 64.4631 263.904)" fill="#838383"/>
<circle cx="114.233" cy="178.663" r="11.9251" fill="#353535"/>
<circle cx="56.5953" cy="64.5795" r="36.1729" fill="#CAA46C"/>
<path fill-rule="evenodd" clip-rule="evenodd" d="M89.611 15.6864C92.2329 15.6864 94.3583 17.8118 94.3583 20.4337C94.3583 29.4126 91.4413 37.7103 86.5032 44.4306C80.7075 36.6362 71.4275 31.5866 60.968 31.5866C44.2075 31.5866 30.4754 44.553 29.2558 61.0019H24.6503C20.9981 61.0019 18.0374 58.0412 18.0374 54.3891C18.0374 33.0142 35.3652 15.6864 56.7401 15.6864H89.611Z" fill="#643921"/>
<circle cx="80.8431" cy="56.2319" r="4.77006" fill="black"/>
<circle cx="56.1979" cy="56.2319" r="4.77006" fill="black"/>
<path d="M57.7877 74.58C57.7877 73.6671 58.5277 72.9271 59.4406 72.9271H79.1901C80.103 72.9271 80.843 73.6671 80.843 74.58C80.843 80.6923 75.888 85.6472 69.7757 85.6472H68.855C62.7427 85.6472 57.7877 80.6923 57.7877 74.58Z" fill="black"/>
<rect x="11.6773" y="95.1874" width="89.0411" height="127.997" rx="17" fill="#E1E1E1"/>
<rect x="8.49719" y="127.783" width="96.1961" height="8.7451" rx="4.37255" fill="#ABABAB"/>
<rect x="10.7369" y="94.871" width="91.9347" height="7.38162" rx="3.69081" fill="#757575"/>
<rect x="8.49719" y="181.843" width="96.1961" height="8.7451" rx="4.37255" fill="#ABABAB"/>
<rect x="6.86188" y="104.728" width="19.8752" height="43.894" rx="9.93762" transform="rotate(5.13653 6.86188 104.728)" fill="#B4B4B4"/>
<rect x="2.93225" y="143.955" width="19.8752" height="43.894" rx="9.93762" transform="rotate(-0.783117 2.93225 143.955)" fill="#B4B4B4"/>
<ellipse cx="13.2674" cy="146.068" rx="10.3351" ry="6.36008" fill="#838383"/>
<circle cx="61.8388" cy="133.092" r="14.7077" fill="#007BC0"/>
<path d="M74.5871 120.592C77.7997 118.728 80.867 123.214 77.9648 125.531L50.2898 147.633C48.9268 148.722 46.9261 148.422 45.9414 146.982L42.982 142.655C41.9973 141.215 42.444 139.242 43.9527 138.366L74.5871 120.592Z" fill="#B10B00"/>
<circle cx="13.2673" cy="178.663" r="11.9251" fill="#353535"/>
<rect x="10.7369" y="93.9479" width="91.9347" height="7.38162" rx="3.69081" fill="#696969"/>
<path fill-rule="evenodd" clip-rule="evenodd" d="M98.3843 93.9478C107.31 83.9751 112.737 70.8058 112.737 56.3687C112.737 25.2371 87.5003 0 56.3687 0C25.2371 0 0 25.2371 0 56.3687C0 70.8058 5.42741 83.9751 14.3532 93.9478H98.3843Z" fill="#C6C6C6" fill-opacity="0.5"/>
</svg>
