<svg width="1478" height="659" viewBox="0 0 1478 659" fill="none" xmlns="http://www.w3.org/2000/svg">
<path fill-rule="evenodd" clip-rule="evenodd" d="M96.4765 464.731C73.5285 485.043 59.9189 510.336 59.9189 537.755C59.9189 604.717 141.087 659 241.212 659C331.661 659 406.639 614.702 420.287 556.777C440.523 561.996 462.51 564.857 485.497 564.857C519.868 564.857 552.005 558.46 579.391 547.35C591.574 606.396 667.333 651.868 758.973 651.868C843.439 651.868 914.413 613.237 934.548 560.952C964.985 572.47 1000.9 579.121 1039.36 579.121C1054.1 579.121 1068.46 578.145 1082.28 576.294C1112.04 616.03 1173.49 643.31 1244.47 643.31C1344.6 643.31 1425.76 589.026 1425.76 522.065C1425.76 493.15 1410.63 466.598 1385.37 445.761C1432.33 420.876 1462.64 381.572 1462.64 337.345C1462.64 292.452 1431.41 252.632 1383.23 227.815C1439.69 207.271 1478 167.25 1478 121.245C1478 54.283 1396.83 0 1296.71 0C1200.1 0 1121.13 50.5397 1115.71 114.243C1085.9 101.495 1050.81 94.1428 1013.24 94.1428C974.201 94.1428 937.825 102.086 907.277 115.776C874.128 87.0044 822.092 68.4675 763.582 68.4675C693.015 68.4675 631.864 95.4316 601.909 134.794C567.204 113.07 521.273 99.8485 470.901 99.8485C455.407 99.8485 440.333 101.099 425.877 103.464C399.751 57.9682 333.802 25.6753 256.576 25.6753C156.45 25.6753 75.2827 79.9584 75.2827 146.92C75.2827 175.765 90.3447 202.258 115.496 223.072C47.4016 244.41 0 292.02 0 347.33C0 397.329 38.7357 441.036 96.4765 464.731Z" fill="#C5C5C5"/>
</svg>
