<svg width="1373" height="659" viewBox="0 0 1373 659" fill="none" xmlns="http://www.w3.org/2000/svg">
<path fill-rule="evenodd" clip-rule="evenodd" d="M1282.63 464.731C1303.94 485.043 1316.57 510.336 1316.57 537.755C1316.57 604.717 1241.22 659 1148.26 659C1064.28 659 994.672 614.702 982.001 556.777C963.214 561.996 942.8 564.857 921.459 564.857C889.548 564.857 859.712 558.46 834.286 547.35C822.975 606.396 752.639 651.868 667.558 651.868C589.139 651.868 523.245 613.237 504.551 560.952C476.293 572.47 442.95 579.121 407.239 579.121C393.56 579.121 380.229 578.145 367.397 576.294C339.765 616.03 282.712 643.31 216.814 643.31C123.855 643.31 48.4978 589.026 48.4978 522.065C48.4978 493.15 62.5497 466.598 86.0027 445.761C42.4031 420.876 14.264 381.572 14.264 337.345C14.264 292.452 43.2567 252.632 87.9825 227.815C35.5712 207.271 0 167.25 0 121.245C0 54.283 75.3577 0 168.316 0C258.012 0 331.321 50.5397 336.356 114.243C364.033 101.495 396.614 94.1428 431.488 94.1428C467.737 94.1428 501.509 102.086 529.87 115.776C560.646 87.0044 608.957 68.4675 663.279 68.4675C728.795 68.4675 785.569 95.4316 813.379 134.794C845.601 113.07 888.244 99.8485 935.01 99.8485C949.395 99.8485 963.39 101.099 976.811 103.464C1001.07 57.9682 1062.3 25.6753 1133.99 25.6753C1226.95 25.6753 1302.31 79.9584 1302.31 146.92C1302.31 175.765 1288.33 202.258 1264.98 223.072C1328.19 244.41 1372.2 292.02 1372.2 347.33C1372.2 397.329 1336.24 441.036 1282.63 464.731Z" fill="#979797"/>
</svg>
