<svg width="547" height="186" viewBox="0 0 547 186" fill="none" xmlns="http://www.w3.org/2000/svg">
<path fill-rule="evenodd" clip-rule="evenodd" d="M350.427 104.033C350.336 104.148 350.245 104.263 350.152 104.377C350.324 104.399 350.495 104.421 350.665 104.443C350.585 104.306 350.505 104.17 350.427 104.033ZM338.5 0C297.769 0 263.186 12.3806 250.84 29.5761C240.229 12.3806 210.507 0 175.5 0C131.849 0 96.4153 19.2492 96.0036 43.0803C42.4398 44.4572 0 63.3705 0 86.5C0 109.861 43.2936 128.921 97.6153 129.956C96.6738 132.402 96.1818 134.924 96.1818 137.5C96.1818 160.42 135.117 179 183.145 179C210.404 179 234.734 173.015 250.679 163.648C265.18 176.931 294.297 186 327.852 186C375.881 186 414.816 167.42 414.816 144.5C414.816 142.006 414.355 139.564 413.471 137.192C423.903 139.01 435.127 140 446.818 140C502.147 140 547 117.838 547 90.5C547 63.1619 502.147 41 446.818 41C441.406 41 436.095 41.212 430.915 41.6202C428.822 18.4679 388.247 0 338.5 0Z" fill="#D9D9D9" fill-opacity="0.5"/>
</svg>
