<svg width="1373" height="659" viewBox="0 0 1373 659" fill="none" xmlns="http://www.w3.org/2000/svg">
<path fill-rule="evenodd" clip-rule="evenodd" d="M89.5706 464.731C68.2653 485.043 55.6299 510.336 55.6299 537.755C55.6299 604.717 130.988 659 223.946 659C307.92 659 377.531 614.702 390.202 556.777C408.99 561.996 429.403 564.857 450.745 564.857C482.655 564.857 512.492 558.46 537.918 547.35C549.229 606.396 619.565 651.868 704.645 651.868C783.065 651.868 848.959 613.237 867.652 560.952C895.91 572.47 929.254 579.121 964.964 579.121C978.643 579.121 991.975 578.145 1004.81 576.294C1032.44 616.03 1089.49 643.31 1155.39 643.31C1248.35 643.31 1323.71 589.026 1323.71 522.065C1323.71 493.15 1309.65 466.598 1286.2 445.761C1329.8 420.876 1357.94 381.572 1357.94 337.345C1357.94 292.452 1328.95 252.632 1284.22 227.815C1336.63 207.271 1372.2 167.25 1372.2 121.245C1372.2 54.283 1296.85 0 1203.89 0C1114.19 0 1040.88 50.5397 1035.85 114.243C1008.17 101.495 975.589 94.1428 940.715 94.1428C904.467 94.1428 870.695 102.086 842.333 115.776C811.557 87.0044 763.246 68.4675 708.924 68.4675C643.408 68.4675 586.635 95.4316 558.824 134.794C526.603 113.07 483.96 99.8485 437.194 99.8485C422.809 99.8485 408.814 101.099 395.392 103.464C371.136 57.9682 309.908 25.6753 238.21 25.6753C145.252 25.6753 69.8939 79.9584 69.8939 146.92C69.8939 175.765 83.8777 202.258 107.228 223.072C44.0086 244.41 0 292.02 0 347.33C0 397.329 35.9629 441.036 89.5706 464.731Z" fill="#CFCFCF"/>
</svg>
