<svg width="1252" height="334" viewBox="0 0 1252 334" fill="none" xmlns="http://www.w3.org/2000/svg">
<path fill-rule="evenodd" clip-rule="evenodd" d="M814.167 255.491C848.678 295.082 929.572 322.867 1023.86 322.867C1149.52 322.867 1251.39 273.519 1251.39 212.647C1251.39 151.774 1149.52 102.427 1023.86 102.427C997.309 102.427 971.819 104.63 948.128 108.68C950.134 103.397 951.18 97.9591 951.18 92.4067C951.18 41.3719 862.755 0 753.676 0C677.467 0 611.34 20.1947 578.406 49.7702C542.194 28.9136 486.938 15.5867 425.029 15.5867C315.951 15.5867 227.525 56.9585 227.525 107.993C227.525 114.48 228.953 120.811 231.671 126.92C103.668 127.054 0 170.368 0 223.78C0 277.274 103.989 320.64 232.265 320.64C323.866 320.64 403.082 298.527 440.891 266.403C470.144 306.034 541.156 334 624.113 334C714.497 334 790.701 300.803 814.167 255.491ZM804.322 181.747C804.532 182.002 804.739 182.257 804.945 182.512C805.123 182.208 805.304 181.904 805.487 181.601C805.099 181.65 804.711 181.699 804.322 181.747Z" fill="#D9D9D9" fill-opacity="0.5"/>
</svg>
