<svg width="1373" height="659" viewBox="0 0 1373 659" fill="none" xmlns="http://www.w3.org/2000/svg">
<path fill-rule="evenodd" clip-rule="evenodd" d="M89.5706 194.269C68.2653 173.957 55.6299 148.664 55.6299 121.245C55.6299 54.2831 130.988 0 223.946 0C307.92 0 377.531 44.2976 390.202 102.223C408.99 97.0039 429.403 94.1429 450.745 94.1429C482.655 94.1429 512.492 100.54 537.918 111.65C549.229 52.6039 619.565 7.13203 704.645 7.13203C783.065 7.13203 848.959 45.7632 867.652 98.048C895.91 86.53 929.254 79.8788 964.964 79.8788C978.643 79.8788 991.975 80.8547 1004.81 82.7063C1032.44 42.9695 1089.49 15.6905 1155.39 15.6905C1248.35 15.6905 1323.71 69.9735 1323.71 136.935C1323.71 165.85 1309.65 192.402 1286.2 213.239C1329.8 238.124 1357.94 277.428 1357.94 321.655C1357.94 366.548 1328.95 406.368 1284.22 431.185C1336.63 451.729 1372.2 491.75 1372.2 537.755C1372.2 604.717 1296.85 659 1203.89 659C1114.19 659 1040.88 608.46 1035.85 544.757C1008.17 557.505 975.589 564.857 940.715 564.857C904.467 564.857 870.695 556.914 842.333 543.224C811.557 571.996 763.246 590.532 708.924 590.532C643.408 590.532 586.635 563.568 558.824 524.206C526.603 545.93 483.96 559.151 437.194 559.151C422.809 559.151 408.814 557.901 395.392 555.536C371.136 601.032 309.908 633.325 238.21 633.325C145.252 633.325 69.8939 579.042 69.8939 512.08C69.8939 483.235 83.8777 456.742 107.228 435.928C44.0086 414.59 0 366.98 0 311.67C0 261.671 35.9629 217.964 89.5706 194.269Z" fill="#919191"/>
</svg>
