<svg width="1920" height="1080" viewBox="0 0 1920 1080" fill="none" xmlns="http://www.w3.org/2000/svg">
<rect width="1920" height="1080" fill="url(#paint0_linear_1_449)"/>
<ellipse cx="1293" cy="821" rx="25" ry="20" fill="#22285F"/>
<ellipse cx="1515.51" cy="807.401" rx="13.5" ry="22.5" transform="rotate(-45.4841 1515.51 807.401)" fill="#22285F"/>
<circle cx="1655" cy="678" r="25" fill="#22285F"/>
<ellipse cx="1713.5" cy="813.5" rx="33.5" ry="39.5" fill="#22285F"/>
<ellipse cx="536" cy="260" rx="25" ry="20" fill="#22285F"/>
<ellipse cx="722.5" cy="75" rx="17.5" ry="14" fill="#22285F"/>
<circle cx="218.5" cy="422.5" r="21.5" fill="#22285F"/>
<ellipse cx="616.5" cy="523" rx="21.5" ry="17" fill="#22285F"/>
<path d="M197.5 87L199.676 107.246L215.531 94.4688L202.754 110.324L223 112.5L202.754 114.676L215.531 130.531L199.676 117.754L197.5 138L195.324 117.754L179.469 130.531L192.246 114.676L172 112.5L192.246 110.324L179.469 94.4688L195.324 107.246L197.5 87Z" fill="#22285F"/>
<circle cx="93" cy="680" r="23" fill="#22285F"/>
<ellipse cx="617.941" cy="952.236" rx="13.5" ry="22.5" transform="rotate(30.0003 617.941 952.236)" fill="#22285F"/>
<ellipse cx="437" cy="865.5" rx="25" ry="12.5" fill="#22285F"/>
<path d="M910 866L912.731 891.407L932.627 875.373L916.593 895.269L942 898L916.593 900.731L932.627 920.627L912.731 904.593L910 930L907.269 904.593L887.373 920.627L903.407 900.731L878 898L903.407 895.269L887.373 875.373L907.269 891.407L910 866Z" fill="#22285F"/>
<ellipse cx="113.5" cy="941" rx="20.5" ry="24" fill="#22285F"/>
<ellipse cx="798" cy="667.5" rx="14" ry="10.5" fill="#22285F"/>
<ellipse cx="1073.96" cy="996.818" rx="19.5" ry="13.5" transform="rotate(91.3732 1073.96 996.818)" fill="#22285F"/>
<ellipse cx="823" cy="394" rx="25" ry="20" fill="#22285F"/>
<ellipse cx="1106" cy="112" rx="25" ry="20" fill="#22285F"/>
<ellipse cx="1109.5" cy="415.5" rx="21.5" ry="14.5" fill="#22285F"/>
<ellipse cx="1018.61" cy="575.642" rx="24.1625" ry="24.5646" transform="rotate(48.8655 1018.61 575.642)" fill="#22285F"/>
<circle cx="1779.5" cy="280.5" r="17.5" fill="#22285F"/>
<path d="M1468.5 165L1470.33 182.07L1483.7 171.297L1472.93 184.665L1490 186.5L1472.93 188.335L1483.7 201.703L1470.33 190.93L1468.5 208L1466.67 190.93L1453.3 201.703L1464.07 188.335L1447 186.5L1464.07 184.665L1453.3 171.297L1466.67 182.07L1468.5 165Z" fill="#22285F"/>
<ellipse cx="1779.5" cy="51.5" rx="22.5" ry="26.5" transform="rotate(-90 1779.5 51.5)" fill="#22285F"/>
<path d="M0 830.481C0 830.481 408.5 791 960 791C1511.5 791 1920 830.481 1920 830.481V1080H0V830.481Z" fill="#302C2C"/>
<path d="M0 846C0 846 408.5 808.5 960 808.5C1511.5 808.5 1920 846 1920 846V1083H0V846Z" fill="#3E3E3E"/>
<mask id="mask0_1_449" style="mask-type:alpha" maskUnits="userSpaceOnUse" x="1598" y="905" width="366" height="135">
<ellipse cx="1781.03" cy="972.375" rx="183.009" ry="66.5873" transform="rotate(2.45812 1781.03 972.375)" fill="#1C1C1C"/>
</mask>
<g mask="url(#mask0_1_449)">
<ellipse cx="1781.03" cy="972.375" rx="183.009" ry="66.5873" transform="rotate(2.45812 1781.03 972.375)" fill="#1C1C1C"/>
<ellipse cx="1779.67" cy="1004.1" rx="183.009" ry="66.1682" transform="rotate(2.45812 1779.67 1004.1)" fill="#313030"/>
</g>
<mask id="mask1_1_449" style="mask-type:alpha" maskUnits="userSpaceOnUse" x="-68" y="988" width="367" height="135">
<ellipse cx="183.009" cy="66.5873" rx="183.009" ry="66.5873" transform="matrix(-0.99908 0.0428891 0.0428891 0.99908 295.681 981)" fill="#1C1C1C"/>
</mask>
<g mask="url(#mask1_1_449)">
<ellipse cx="183.009" cy="66.5873" rx="183.009" ry="66.5873" transform="matrix(-0.99908 0.0428891 0.0428891 0.99908 295.681 981)" fill="#1C1C1C"/>
<ellipse cx="183.009" cy="66.1682" rx="183.009" ry="66.1682" transform="matrix(-0.99908 0.0428891 0.0428891 0.99908 297.062 1013.14)" fill="#313030"/>
</g>
<mask id="mask2_1_449" style="mask-type:alpha" maskUnits="userSpaceOnUse" x="1165" y="824" width="255" height="74">
<ellipse cx="1292.5" cy="861" rx="127.5" ry="37" fill="#1C1C1C"/>
</mask>
<g mask="url(#mask2_1_449)">
<ellipse cx="1292.5" cy="861" rx="127.5" ry="37" fill="#1C1C1C"/>
<ellipse cx="1292.5" cy="878.645" rx="127.5" ry="36.7671" fill="#313030"/>
</g>
<mask id="mask3_1_449" style="mask-type:alpha" maskUnits="userSpaceOnUse" x="256" y="841" width="209" height="94">
<ellipse cx="360.613" cy="888.261" rx="104.221" ry="46.3371" transform="rotate(-2.29231 360.613 888.261)" fill="#1C1C1C"/>
</mask>
<g mask="url(#mask3_1_449)">
<ellipse cx="360.613" cy="888.261" rx="104.221" ry="46.3371" transform="rotate(-2.29231 360.613 888.261)" fill="#1C1C1C"/>
<ellipse cx="361.497" cy="910.341" rx="104.221" ry="46.0454" transform="rotate(-2.29231 361.497 910.341)" fill="#313030"/>
</g>
<defs>
<linearGradient id="paint0_linear_1_449" x1="1920" y1="1080" x2="1261.78" y2="-519.305" gradientUnits="userSpaceOnUse">
<stop stop-color="#0E0F2F" stop-opacity="0.97"/>
<stop offset="0.93" stop-color="#0E0E1C"/>
</linearGradient>
</defs>
</svg>
