<svg width="77" height="98" viewBox="0 0 77 98" fill="none" xmlns="http://www.w3.org/2000/svg">
<rect x="1.33636" width="73.5" height="98" rx="20" fill="#C1A200"/>
<circle cx="38.0864" cy="49.6682" r="26.5045" fill="#998106"/>
<mask id="mask0_3_527" style="mask-type:alpha" maskUnits="userSpaceOnUse" x="4" y="19" width="68" height="59">
<path d="M54.5682 77.9545L71.3494 48.8886H37.787L54.5682 77.9545Z" fill="#D9D9D9"/>
<path d="M38.0863 49L54.8676 19.9341H21.3051L38.0863 49Z" fill="#D9D9D9"/>
<path d="M21.1591 77.9545L37.9403 48.8886H4.37788L21.1591 77.9545Z" fill="#D9D9D9"/>
</mask>
<g mask="url(#mask0_3_527)">
<circle cx="38.0864" cy="49.6682" r="26.5045" fill="#1B1B1B"/>
</g>
<circle cx="38.0864" cy="48.7773" r="6.01364" fill="#998106"/>
<circle cx="38.0864" cy="48.7773" r="4.23182" fill="#1B1B1B"/>
<rect width="76.1727" height="8.01818" rx="4.00909" transform="matrix(1 0 0 -1 0 89.9818)" fill="#1B1B1B"/>
<rect width="76.1727" height="8.01818" rx="4.00909" transform="matrix(1 0 0 -1 0 16.9273)" fill="#1B1B1B"/>
</svg>
