<?xml version="1.0" encoding="UTF-8"?>
<svg id="Calque_1" data-name="Calque 1" xmlns="http://www.w3.org/2000/svg" viewBox="0 0 77 98">
  <defs>
    <style>
      .cls-1 {
        fill: #c1a200;
        stroke-width: 0px;
      }
    </style>
  </defs>
  <path class="cls-1" d="M21.34,0h33.5c11.05,0,20,8.95,20,20v58c0,11.05-8.95,20-20,20H21.34c-11.05,0-20-8.95-20-20V20C1.34,8.95,10.29,0,21.34,0ZM38.09,23.16c14.64,0,26.5,11.87,26.5,26.5s-11.87,26.5-26.5,26.5-26.5-11.87-26.5-26.5,11.87-26.5,26.5-26.5ZM38.09,23.16c14.64,0,26.5,11.87,26.5,26.5s-11.87,26.5-26.5,26.5-26.5-11.87-26.5-26.5,11.87-26.5,26.5-26.5ZM38.09,42.76c3.32,0,6.01,2.69,6.01,6.01s-2.69,6.01-6.01,6.01-6.01-2.69-6.01-6.01,2.69-6.01,6.01-6.01ZM38.09,44.55c2.34,0,4.23,1.89,4.23,4.23s-1.89,4.23-4.23,4.23-4.23-1.89-4.23-4.23,1.89-4.23,4.23-4.23ZM4.01,89.98h68.15c2.21,0,4.01-1.79,4.01-4.01h0c0-2.21-1.79-4.01-4.01-4.01H4.01c-2.21,0-4.01,1.79-4.01,4.01h0c0,2.21,1.79,4.01,4.01,4.01ZM4.01,16.93h68.15c2.21,0,4.01-1.79,4.01-4.01h0c0-2.21-1.79-4.01-4.01-4.01H4.01c-2.21,0-4.01,1.79-4.01,4.01h0c0,2.21,1.79,4.01,4.01,4.01Z"/>
</svg>