<svg width="335" height="328" viewBox="0 0 335 328" fill="none" xmlns="http://www.w3.org/2000/svg">
<path d="M269.923 11.6884C269.948 9.47946 271.76 7.70964 273.969 7.73544L299.967 8.03911L299.617 38.0371L269.619 37.6867L269.923 11.6884Z" fill="#525252"/>
<path d="M241.045 39.9797C241.071 37.7707 242.883 36.0009 245.092 36.0267L271.09 36.3304L270.739 66.3283L240.741 65.9779L241.045 39.9797Z" fill="#525252"/>
<path d="M212.168 68.271C212.194 66.062 214.005 64.2922 216.214 64.318L242.213 64.6217L241.862 94.6196L211.864 94.2693L212.168 68.271Z" fill="#525252"/>
<path d="M182.575 97.2611C182.601 95.0522 184.413 93.2823 186.622 93.3081L212.62 93.6118L212.27 123.61L182.272 123.259L182.575 97.2611Z" fill="#525252"/>
<path d="M152.983 126.251C153.009 124.042 154.82 122.272 157.029 122.298L183.027 122.602L182.677 152.6L152.679 152.249L152.983 126.251Z" fill="#525252"/>
<path d="M124.106 154.543C124.131 152.334 125.943 150.564 128.152 150.59L154.15 150.893L153.8 180.891L123.802 180.541L124.106 154.543Z" fill="#525252"/>
<path d="M95.2448 181.42C95.2706 179.211 97.0823 177.441 99.2913 177.467L125.289 177.77L124.939 207.768L94.9411 207.418L95.2448 181.42Z" fill="#525252"/>
<path d="M66.3675 209.711C66.3933 207.502 68.205 205.732 70.4139 205.758L96.4122 206.062L96.0618 236.06L66.0638 235.709L66.3675 209.711Z" fill="#525252"/>
<path d="M37.4901 238.002C37.5159 235.793 39.3275 234.023 41.5365 234.049L67.5347 234.353L67.1843 264.351L37.1864 264L37.4901 238.002Z" fill="#525252"/>
<path d="M10.0269 266.31C10.0527 264.101 11.8644 262.331 14.0734 262.357L40.0716 262.661L39.7212 292.659L9.72325 292.308L10.0269 266.31Z" fill="#525252"/>
<path d="M306.959 0C322.01 15.4073 321.722 40.099 306.315 55.1506L41.2019 314.142C33.4982 321.667 21.1524 321.523 13.6266 313.82C6.10084 306.116 6.24504 293.77 13.9487 286.244L306.959 0Z" fill="#540000"/>
</svg>
