<?xml version="1.0" encoding="UTF-8"?>
<svg id="Calque_2" data-name="Calque 1" xmlns="http://www.w3.org/2000/svg" viewBox="0 0 1042 1042">
  <defs>
    <style>
      .cls-1 {
        fill: #ccab00;
        stroke-width: 0px;
      }
    </style>
  </defs>
  <path class="cls-1" d="M521,0c287.74,0,521,233.26,521,521s-233.26,521-521,521S0,808.74,0,521,233.26,0,521,0ZM521,24.12c274.42,0,496.88,222.46,496.88,496.88s-222.46,496.88-496.88,496.88S24.12,795.42,24.12,521,246.58,24.12,521,24.12ZM521,58.85c255.24,0,462.15,206.91,462.15,462.15s-206.91,462.15-462.15,462.15S58.85,776.24,58.85,521,265.76,58.85,521,58.85Z"/>
</svg>