<svg width="99" height="115" viewBox="0 0 99 115" fill="none" xmlns="http://www.w3.org/2000/svg">
<path d="M3.77046 46.9152C0.245991 27.0185 -2.97266 8.84835 14.0767 0.0915527H49.4296V115C39.9337 106.443 39.7651 97.8655 33.8563 86.4766C24.5147 68.4711 7.92424 70.3712 3.84904 47.3589L3.77046 46.9152Z" fill="#C8CC03"/>
<path d="M95.8147 47.0678C99.4075 27.1115 102.691 8.87073 85.3164 0.0915527H49.4296V115C59.0821 106.443 59.2536 97.8655 65.2598 86.4766C74.7556 68.4711 91.6198 70.3712 95.7623 47.3589L95.8147 47.0678Z" fill="#C8CC03"/>
<path d="M12.7005 40.9279C9.83659 23.5887 9.57264 7.71315 23.4132 0.0915527H49.4296V99.3662C41.7778 91.9734 41.6419 84.563 36.8806 74.7235C29.353 59.1677 15.9843 60.8094 12.7005 40.9279Z" fill="#CC7C03"/>
<path d="M86.9082 40.9279C89.8306 23.5887 90.1 7.71315 75.977 0.0915527H49.4296V99.3662C57.2376 91.9734 57.3762 84.563 62.2347 74.7235C69.9159 59.1677 83.5574 60.8094 86.9082 40.9279Z" fill="#CC7C03"/>
</svg>
