<svg width="306" height="657" viewBox="0 0 306 657" fill="none" xmlns="http://www.w3.org/2000/svg">
<path d="M88.331 501.845L74.6423 416.641C74.6423 416.641 28.728 419.768 6.48375 501.845C-15.7604 583.923 26.1613 667.563 28.728 655.056C31.2946 642.549 28.6679 590.868 43.4148 557.736C55.7527 530.016 88.331 501.845 88.331 501.845Z" fill="#740101"/>
<path d="M217.31 501.957L230.999 416.641C230.999 416.641 276.913 419.772 299.157 501.957C321.401 584.142 279.48 667.893 276.913 655.37C274.346 642.846 276.973 591.097 262.226 557.921C249.888 530.165 217.31 501.957 217.31 501.957Z" fill="#740101"/>
<path fill-rule="evenodd" clip-rule="evenodd" d="M66.65 416.641C57.1019 374.951 51.5915 325.812 51.5915 273.201C51.5915 122.316 108.792 0 152.82 0C208.728 0 254.049 122.316 254.049 273.201C254.049 325.812 248.539 374.951 238.991 416.641H66.65Z" fill="#910000"/>
<mask id="mask0_3_449" style="mask-type:alpha" maskUnits="userSpaceOnUse" x="66" y="416" width="173" height="136">
<path fill-rule="evenodd" clip-rule="evenodd" d="M238.992 416.641H152.43H66.6519L95.1919 541.76C96.4372 547.219 101.292 551.092 106.891 551.092H152.43H198.614C204.209 551.092 209.061 547.226 210.311 541.773L238.992 416.641Z" fill="#900000"/>
</mask>
<g mask="url(#mask0_3_449)">
<rect width="205.585" height="89.8944" transform="matrix(-1 0 0 1 260.303 505.754)" fill="#363636"/>
<path fill-rule="evenodd" clip-rule="evenodd" d="M238.992 416.641H152.43H66.6519L95.1919 541.76C96.4372 547.219 101.292 551.092 106.891 551.092H152.43H198.614C204.209 551.092 209.061 547.226 210.311 541.773L238.992 416.641Z" fill="#900000"/>
</g>
<mask id="mask1_3_449" style="mask-type:alpha" maskUnits="userSpaceOnUse" x="51" y="0" width="204" height="417">
<path fill-rule="evenodd" clip-rule="evenodd" d="M66.65 416.641C57.1019 374.951 51.5915 325.812 51.5915 273.201C51.5915 122.316 108.792 0 152.82 0C208.728 0 254.049 122.316 254.049 273.201C254.049 325.812 248.539 374.951 238.991 416.641H66.65Z" fill="#910000"/>
</mask>
<g mask="url(#mask1_3_449)">
<rect width="230.599" height="39.0845" transform="matrix(-1 0 0 1 268.12 333.782)" fill="#420000"/>
</g>
<mask id="mask2_3_449" style="mask-type:alpha" maskUnits="userSpaceOnUse" x="85" y="505" width="136" height="47">
<mask id="mask3_3_449" style="mask-type:alpha" maskUnits="userSpaceOnUse" x="66" y="416" width="173" height="136">
<path fill-rule="evenodd" clip-rule="evenodd" d="M238.992 416.641H152.43H66.6519L95.1919 541.76C96.4371 547.219 101.292 551.092 106.891 551.092H152.43H198.614C204.209 551.092 209.061 547.226 210.311 541.773L238.992 416.641Z" fill="#900000"/>
</mask>
<g mask="url(#mask3_3_449)">
<rect width="135.232" height="45.338" transform="matrix(-1 0 0 1 220.437 505.754)" fill="#D9D9D9"/>
</g>
</mask>
<g mask="url(#mask2_3_449)">
<rect width="128.979" height="14.0704" transform="matrix(-1 0 0 1 217.31 537.021)" fill="#272727"/>
</g>
<circle cx="46.1197" cy="46.1197" r="46.1197" transform="matrix(-1 0 0 1 198.549 69.5704)" fill="#787878"/>
<circle cx="31.2676" cy="31.2676" r="31.2676" transform="matrix(-1 0 0 1 183.697 84.4225)" fill="#BEBEBE"/>
</svg>
