<svg width="464" height="657" viewBox="0 0 464 657" fill="none" xmlns="http://www.w3.org/2000/svg">
<path d="M88.331 501.845L74.6422 416.641C74.6422 416.641 28.7279 419.768 6.48372 501.845C-15.7605 583.923 26.1613 667.563 28.7279 655.056C31.2946 642.549 28.6678 590.868 43.4148 557.736C55.7527 530.016 88.331 501.845 88.331 501.845Z" fill="#740101"/>
<path d="M217.31 501.957L230.999 416.641C230.999 416.641 276.913 419.772 299.157 501.957C321.401 584.142 279.48 667.893 276.913 655.37C274.346 642.846 276.973 591.097 262.226 557.921C249.888 530.165 217.31 501.957 217.31 501.957Z" fill="#740101"/>
<path d="M252.557 386.785C252.531 384.576 250.719 382.806 248.51 382.832L229.061 383.059L229.335 406.508L252.784 406.234L252.557 386.785Z" fill="#525252"/>
<path d="M275.13 408.9C275.104 406.691 273.292 404.921 271.083 404.947L251.634 405.174L251.908 428.623L275.357 428.349L275.13 408.9Z" fill="#525252"/>
<path d="M297.703 431.015C297.677 428.806 295.865 427.036 293.656 427.062L274.207 427.289L274.481 450.738L297.93 450.464L297.703 431.015Z" fill="#525252"/>
<path d="M320.835 453.676C320.809 451.467 318.998 449.697 316.789 449.723L297.339 449.95L297.613 473.399L321.062 473.125L320.835 453.676Z" fill="#525252"/>
<path d="M343.967 476.337C343.941 474.128 342.13 472.358 339.921 472.384L320.471 472.611L320.745 496.06L344.194 495.787L343.967 476.337Z" fill="#525252"/>
<path d="M366.54 498.452C366.515 496.243 364.703 494.473 362.494 494.499L343.045 494.726L343.318 518.175L366.768 517.902L366.54 498.452Z" fill="#525252"/>
<path d="M389.101 519.462C389.075 517.253 387.263 515.483 385.054 515.509L365.605 515.736L365.879 539.185L389.328 538.911L389.101 519.462Z" fill="#525252"/>
<path d="M411.674 541.577C411.648 539.368 409.836 537.598 407.627 537.624L388.178 537.851L388.452 561.3L411.901 561.026L411.674 541.577Z" fill="#525252"/>
<path d="M434.247 563.692C434.221 561.483 432.409 559.713 430.2 559.739L410.751 559.966L411.025 583.415L434.474 583.141L434.247 563.692Z" fill="#525252"/>
<path d="M455.714 585.82C455.689 583.611 453.877 581.841 451.668 581.867L432.219 582.094L432.493 605.543L455.942 605.269L455.714 585.82Z" fill="#525252"/>
<path d="M223.595 376.775C211.83 388.818 212.055 408.12 224.099 419.885L431.335 622.336C437.357 628.219 447.008 628.106 452.89 622.084C458.773 616.062 458.66 606.412 452.639 600.529L223.595 376.775Z" fill="#540000"/>
<path fill-rule="evenodd" clip-rule="evenodd" d="M66.65 416.641C57.1019 374.951 51.5915 325.812 51.5915 273.201C51.5915 122.316 108.791 0 152.82 0C208.728 0 254.049 122.316 254.049 273.201C254.049 325.812 248.539 374.951 238.991 416.641H66.65Z" fill="#910000"/>
<mask id="mask0_3_449" style="mask-type:alpha" maskUnits="userSpaceOnUse" x="66" y="416" width="173" height="136">
<path fill-rule="evenodd" clip-rule="evenodd" d="M238.992 416.641H152.43H66.6519L95.1919 541.76C96.4371 547.219 101.292 551.092 106.891 551.092H152.43H198.614C204.209 551.092 209.061 547.226 210.311 541.773L238.992 416.641Z" fill="#900000"/>
</mask>
<g mask="url(#mask0_3_449)">
<rect width="205.585" height="89.8944" transform="matrix(-1 0 0 1 260.303 505.754)" fill="#363636"/>
<path fill-rule="evenodd" clip-rule="evenodd" d="M238.992 416.641H152.43H66.6519L95.1919 541.76C96.4371 547.219 101.292 551.092 106.891 551.092H152.43H198.614C204.209 551.092 209.061 547.226 210.311 541.773L238.992 416.641Z" fill="#900000"/>
</g>
<mask id="mask1_3_449" style="mask-type:alpha" maskUnits="userSpaceOnUse" x="51" y="0" width="204" height="417">
<path fill-rule="evenodd" clip-rule="evenodd" d="M66.65 416.641C57.1019 374.951 51.5915 325.812 51.5915 273.201C51.5915 122.316 108.791 0 152.82 0C208.728 0 254.049 122.316 254.049 273.201C254.049 325.812 248.539 374.951 238.991 416.641H66.65Z" fill="#910000"/>
</mask>
<g mask="url(#mask1_3_449)">
<rect width="230.599" height="39.0845" transform="matrix(-1 0 0 1 268.12 333.782)" fill="#420000"/>
</g>
<mask id="mask2_3_449" style="mask-type:alpha" maskUnits="userSpaceOnUse" x="85" y="505" width="136" height="47">
<mask id="mask3_3_449" style="mask-type:alpha" maskUnits="userSpaceOnUse" x="66" y="416" width="173" height="136">
<path fill-rule="evenodd" clip-rule="evenodd" d="M238.992 416.641H152.43H66.6519L95.1919 541.76C96.4371 547.219 101.292 551.092 106.891 551.092H152.43H198.614C204.209 551.092 209.061 547.226 210.311 541.773L238.992 416.641Z" fill="#900000"/>
</mask>
<g mask="url(#mask3_3_449)">
<rect width="135.232" height="45.338" transform="matrix(-1 0 0 1 220.437 505.754)" fill="#D9D9D9"/>
</g>
</mask>
<g mask="url(#mask2_3_449)">
<rect width="128.979" height="14.0704" transform="matrix(-1 0 0 1 217.31 537.021)" fill="#272727"/>
</g>
<circle cx="46.1197" cy="46.1197" r="46.1197" transform="matrix(-1 0 0 1 198.549 69.5704)" fill="#787878"/>
<circle cx="31.2676" cy="31.2676" r="31.2676" transform="matrix(-1 0 0 1 183.697 84.4225)" fill="#BEBEBE"/>
</svg>
