<svg width="98" height="234" viewBox="0 0 98 234" fill="none" xmlns="http://www.w3.org/2000/svg">
<rect x="67.3182" y="83.3068" width="15.288" height="33.7631" rx="7.64398" transform="rotate(-13.6136 67.3182 83.3068)" fill="#B4B4B4"/>
<rect width="18.8421" height="33.7631" rx="9.42107" transform="matrix(1 0 0 -1 18.9669 200.316)" fill="#B4B4B4"/>
<rect width="18.8421" height="33.7631" rx="9.42107" transform="matrix(1 0 0 -1 48.3197 200.046)" fill="#B4B4B4"/>
<rect width="18.8421" height="35.0168" rx="9.42107" transform="matrix(1 0 0 -1 18.7664 233.098)" fill="#B4B4B4"/>
<rect width="18.8421" height="35.0168" rx="9.42107" transform="matrix(1 0 0 -1 48.1193 232.828)" fill="#B4B4B4"/>
<rect x="75.0261" y="111.975" width="15.288" height="33.7631" rx="7.64398" transform="rotate(-7.33624 75.0261 111.975)" fill="#B4B4B4"/>
<ellipse cx="82.9953" cy="112.358" rx="7.94974" ry="4.89215" transform="rotate(-8.42562 82.9953 112.358)" fill="#838383"/>
<ellipse cx="7.94974" cy="4.89215" rx="7.94974" ry="4.89215" transform="matrix(1 0 0 -1 20.2318 203.99)" fill="#838383"/>
<ellipse cx="7.94974" cy="4.89215" rx="7.94974" ry="4.89215" transform="matrix(1 0 0 -1 49.5848 203.72)" fill="#838383"/>
<circle cx="87.8679" cy="138.153" r="9.17278" fill="#353535"/>
<circle cx="43.5329" cy="50.3997" r="27.8241" fill="#CAA46C"/>
<path fill-rule="evenodd" clip-rule="evenodd" d="M68.9284 12.7913C70.9452 12.7913 72.5801 14.4262 72.5801 16.4429C72.5801 23.3495 70.3363 29.732 66.538 34.9013C62.0799 28.9059 54.9417 25.0217 46.8964 25.0217C34.0042 25.0217 23.4415 34.9954 22.5034 47.6479H18.9609C16.1516 47.6479 13.8743 45.3705 13.8743 42.5613C13.8743 26.1198 27.2027 12.7913 43.6442 12.7913H68.9284Z" fill="#643921"/>
<circle cx="62.1842" cy="43.9787" r="3.66911" fill="black"/>
<circle cx="43.2272" cy="43.9787" r="3.66911" fill="black"/>
<path d="M44.4501 58.0921C44.4501 57.3899 45.0193 56.8206 45.7215 56.8206H60.9127C61.6149 56.8206 62.1841 57.3899 62.1841 58.0921C62.1841 62.7936 58.3728 66.6049 53.6712 66.6049H52.963C48.2615 66.6049 44.4501 62.7936 44.4501 58.0921Z" fill="black"/>
<rect x="8.98211" y="73.9432" width="68.4901" height="98.4544" rx="17" fill="#E1E1E1"/>
<rect x="6.53602" y="99.0154" width="73.9937" height="6.7267" rx="3.36335" fill="#ABABAB"/>
<rect x="8.25878" y="73.6998" width="70.7159" height="5.67792" rx="2.83896" fill="#757575"/>
<rect x="6.53602" y="140.599" width="73.9937" height="6.7267" rx="3.36335" fill="#ABABAB"/>
<rect x="5.27812" y="81.2814" width="15.288" height="33.7631" rx="7.64398" transform="rotate(5.13653 5.27812 81.2814)" fill="#B4B4B4"/>
<rect x="2.25548" y="111.455" width="15.288" height="33.7631" rx="7.64398" transform="rotate(-0.783117 2.25548 111.455)" fill="#B4B4B4"/>
<ellipse cx="10.2052" cy="113.08" rx="7.94974" ry="4.89215" fill="#838383"/>
<circle cx="47.5662" cy="103.099" r="11.3131" fill="#007BC0"/>
<path d="M49.3024 98.1666C52.5149 96.3027 55.5823 100.788 52.6801 103.106L39.2654 113.819C37.9024 114.907 35.9016 114.608 34.917 113.168L33.4825 111.07C32.4978 109.631 32.9445 107.658 34.4533 106.782L49.3024 98.1666Z" fill="#B10B00"/>
<circle cx="10.2051" cy="138.153" r="9.17278" fill="#353535"/>
<rect x="8.25878" y="72.9898" width="70.7159" height="5.67792" rx="2.83896" fill="#696969"/>
<path fill-rule="evenodd" clip-rule="evenodd" d="M75.6768 72.9897C82.5425 65.3187 86.7172 55.1889 86.7172 44.084C86.7172 20.1377 67.3049 0.725403 43.3586 0.725403C19.4123 0.725403 0 20.1377 0 44.084C0 55.1889 4.17474 65.3187 11.0404 72.9897H75.6768Z" fill="#C6C6C6" fill-opacity="0.5"/>
</svg>
