<svg width="1920" height="1080" viewBox="0 0 1920 1080" fill="none" xmlns="http://www.w3.org/2000/svg">
<rect y="785" width="1920" height="211" fill="#555555"/>
<rect y="804" width="1920" height="192" fill="#646464"/>
<rect y="996" width="1920" height="84" fill="#767676"/>
<rect width="1920" height="785" fill="#B06363"/>
<rect x="276" y="402" width="398" height="261.575" rx="26" fill="#754522"/>
<rect x="298.55" y="424.55" width="352.901" height="216.476" rx="26" fill="#A48250"/>
<rect x="381.911" y="479.065" width="10.1473" height="73.2861" rx="5.07365" transform="rotate(43.7354 381.911 479.065)" fill="#814A2B"/>
<rect x="386.006" y="454.029" width="41.9645" height="25.932" rx="7" transform="rotate(43.7354 386.006 454.029)" fill="#2E2E2E"/>
<rect x="510.163" y="445.972" width="10.1473" height="137.552" rx="5.07365" transform="rotate(43.9599 510.163 445.972)" fill="#814A2B"/>
<path d="M514.307 455.795L532.346 473.19C533.141 473.957 533.164 475.223 532.397 476.018L518.738 490.182C517.971 490.977 516.705 491 515.91 490.234L497.872 472.838L514.307 455.795Z" fill="#940000"/>
<path d="M528.104 469.1L532.346 473.19C533.141 473.957 533.164 475.223 532.397 476.018L518.738 490.182C517.971 490.977 516.705 491 515.91 490.234L511.669 486.143L528.104 469.1Z" fill="#797979"/>
<rect width="2.25496" height="30.4419" rx="1.12748" transform="matrix(1 0 0 -1 503.751 611.711)" fill="#797979"/>
<rect width="2.25496" height="30.4419" rx="1.12748" transform="matrix(1 0 0 -1 487.966 611.711)" fill="#797979"/>
<rect width="2.25496" height="30.4419" rx="1.12748" transform="matrix(1 0 0 -1 472.181 611.711)" fill="#797979"/>
<rect width="9.01983" height="37.2068" rx="4.50991" transform="matrix(1 0 0 -1 500.368 583.524)" fill="#7B3B0C"/>
<rect width="9.01983" height="37.2068" rx="4.50991" transform="matrix(1 0 0 -1 484.584 583.524)" fill="#7B3B0C"/>
<path d="M598.181 478.278C596.979 476.993 594.935 477.013 593.759 478.321L541.039 536.962C539.998 538.119 540.015 539.88 541.079 541.017L549.088 549.579C550.22 550.789 552.118 550.853 553.328 549.721L610.7 496.053C611.91 494.921 611.974 493.022 610.842 491.812L598.181 478.278Z" fill="#797979"/>
<rect width="9.01983" height="37.2068" rx="4.50991" transform="matrix(1 0 0 -1 468.799 583.524)" fill="#7B3B0C"/>
<rect width="24.8045" height="33.8244" rx="4" transform="matrix(-0.730287 0.68314 0.68314 0.730287 606.863 459.501)" fill="#0C1993"/>
<rect width="13.5297" height="22.5496" rx="3" transform="matrix(-0.730287 0.68314 0.68314 0.730287 606.597 467.469)" fill="#A48250"/>
<rect x="956" y="636" width="600" height="41" rx="10" fill="#754522"/>
<path d="M1457 677H1489V824C1489 828.418 1485.42 832 1481 832H1465C1460.58 832 1457 828.418 1457 824V677Z" fill="#754522"/>
<path d="M1023 676H1055V823C1055 827.418 1051.42 831 1047 831H1031C1026.58 831 1023 827.418 1023 823V676Z" fill="#754522"/>
<rect x="1055" y="742" width="402" height="26" fill="#754522"/>
<path d="M1458 564C1458 560.686 1460.69 558 1464 558H1513C1516.31 558 1519 560.686 1519 564V636H1458V564Z" fill="#D9D9D9"/>
<path d="M1365 564C1365 560.686 1367.69 558 1371 558H1420C1423.31 558 1426 560.686 1426 564V636H1365V564Z" fill="#D9D9D9"/>
<path d="M1365 564C1365 560.686 1367.69 558 1371 558H1420C1423.31 558 1426 560.686 1426 564V597H1365V564Z" fill="#69289B"/>
<path d="M1458 564C1458 560.686 1460.69 558 1464 558H1513C1516.31 558 1519 560.686 1519 564V597H1458V564Z" fill="#1B760C"/>
<rect x="1690.04" y="371.008" width="447" height="15" rx="7.5" transform="rotate(90.0053 1690.04 371.008)" fill="#754522"/>
<rect x="1616.01" y="764.001" width="59" height="14" fill="#754522"/>
<rect x="1616.01" y="721.001" width="59" height="14" fill="#754522"/>
<rect x="1616.01" y="678.001" width="59" height="14" fill="#754522"/>
<rect x="1616.02" y="635.001" width="59" height="14" fill="#754522"/>
<rect x="1616.02" y="592.001" width="59" height="14" fill="#754522"/>
<rect x="1616.02" y="549.001" width="59" height="14" fill="#754522"/>
<rect x="1616.03" y="506.001" width="59" height="14" fill="#754522"/>
<rect x="1616.03" y="463.001" width="59" height="14" fill="#754522"/>
<rect x="1616.04" y="420.001" width="59" height="14" fill="#754522"/>
<rect x="1616.04" y="371.001" width="447" height="15" rx="7.5" transform="rotate(90.0053 1616.04 371.001)" fill="#754522"/>
</svg>
