<svg width="183" height="427" viewBox="0 0 183 427" fill="none" xmlns="http://www.w3.org/2000/svg">
<rect x="128.418" y="136.612" width="29.6178" height="65.4103" rx="13" transform="rotate(-13.6136 128.418 136.612)" fill="#B4B4B4"/>
<rect width="36.5035" height="65.4103" rx="13" transform="matrix(1 0 0 -1 34.7451 363.297)" fill="#B4B4B4"/>
<rect width="36.5035" height="65.4103" rx="13" transform="matrix(1 0 0 -1 91.6113 362.773)" fill="#B4B4B4"/>
<rect width="36.5035" height="67.8392" rx="13" transform="matrix(1 0 0 -1 34.3567 426.807)" fill="#B4B4B4"/>
<rect width="36.5035" height="67.8392" rx="13" transform="matrix(1 0 0 -1 91.2229 426.284)" fill="#B4B4B4"/>
<rect x="143.35" y="192.151" width="29.6178" height="65.4103" rx="13" transform="rotate(-7.33624 143.35 192.151)" fill="#B4B4B4"/>
<ellipse cx="158.789" cy="192.893" rx="15.4013" ry="9.47771" transform="rotate(-8.42562 158.789 192.893)" fill="#838383"/>
<ellipse cx="15.4013" cy="9.47771" rx="15.4013" ry="9.47771" transform="matrix(1 0 0 -1 37.1957 370.414)" fill="#838383"/>
<ellipse cx="15.4013" cy="9.47771" rx="15.4013" ry="9.47771" transform="matrix(1 0 0 -1 94.0619 369.891)" fill="#838383"/>
<circle cx="165.229" cy="242.866" r="17.7707" fill="#353535"/>
<circle cx="82.3376" cy="72.8599" r="53.9045" fill="#CAA46C"/>
<path fill-rule="evenodd" clip-rule="evenodd" d="M131.537 0C135.444 0 138.611 3.16733 138.611 7.07443C138.611 20.4548 134.265 32.8198 126.906 42.8344C118.269 31.2192 104.44 23.6943 88.8535 23.6943C63.8771 23.6943 43.4137 43.0167 41.5962 67.5287H34.7334C29.291 67.5287 24.879 63.1167 24.879 57.6743C24.879 25.8216 50.7007 0 82.5533 0H131.537Z" fill="#643921"/>
<circle cx="118.471" cy="60.4204" r="7.10828" fill="black"/>
<circle cx="81.7452" cy="60.4204" r="7.10828" fill="black"/>
<path d="M84.1147 87.7625C84.1147 86.4021 85.2174 85.2994 86.5778 85.2994H116.008C117.369 85.2994 118.471 86.4021 118.471 87.7625C118.471 96.8709 111.087 104.255 101.979 104.255H100.607C91.4985 104.255 84.1147 96.8709 84.1147 87.7625Z" fill="black"/>
<rect x="15.4013" y="118.471" width="132.688" height="190.739" rx="17" fill="#E1E1E1"/>
<rect x="10.6624" y="167.045" width="143.35" height="13.0318" rx="6.51592" fill="#ABABAB"/>
<rect x="14" y="118" width="137" height="11" rx="5.5" fill="#757575"/>
<rect x="10.6624" y="247.605" width="143.35" height="13.0318" rx="6.51592" fill="#ABABAB"/>
<rect x="8.22552" y="132.688" width="29.6178" height="65.4103" rx="13" transform="rotate(5.13653 8.22552 132.688)" fill="#B4B4B4"/>
<rect x="2.36943" y="191.144" width="29.6178" height="65.4103" rx="13" transform="rotate(-0.783117 2.36943 191.144)" fill="#B4B4B4"/>
<ellipse cx="17.7707" cy="194.293" rx="15.4013" ry="9.47771" fill="#838383"/>
<circle cx="90.1515" cy="174.957" r="21.9172" fill="#007BC0"/>
<path d="M117.016 152.732C120.2 150.972 123.183 155.334 120.388 157.663L76.3187 194.369C74.9595 195.501 72.9209 195.218 71.9223 193.758L65.8004 184.806C64.8019 183.346 65.277 181.343 66.825 180.487L117.016 152.732Z" fill="#B10B00"/>
<circle cx="17.7707" cy="242.866" r="17.7707" fill="#353535"/>
</svg>
