<svg width="239" height="459" viewBox="0 0 239 459" fill="none" xmlns="http://www.w3.org/2000/svg">
<rect width="10" height="63" rx="5" transform="matrix(1 0 0 -1 115 459)" fill="#6A179C"/>
<rect width="10" height="55" rx="5" transform="matrix(1 0 0 -1 115 396)" fill="#6A179C"/>
<circle cx="120" cy="397" r="12" fill="#060606"/>
<rect x="222.023" y="396.466" width="9.62" height="65.3316" rx="4.81" transform="rotate(28.0239 222.023 396.466)" fill="#6A179C"/>
<rect width="9.62" height="66.1649" rx="4.81" transform="matrix(-0.882752 0.46984 0.46984 0.882752 17.796 395.731)" fill="#6A179C"/>
<rect width="9.61898" height="109.191" rx="4.80949" transform="matrix(-0.487908 -0.872895 -0.872895 0.487908 110.829 343.56)" fill="#6A179C"/>
<rect x="131.303" y="345.138" width="9.61898" height="107.535" rx="4.80949" transform="rotate(-60.7969 131.303 345.138)" fill="#6A179C"/>
<circle cx="12" cy="397" r="12" fill="#060606"/>
<circle cx="227" cy="397" r="12" fill="#060606"/>
<rect x="92" y="320" width="57" height="41" rx="20.5" fill="#060606"/>
<rect x="109" y="-49" width="22" height="392" rx="11" fill="#6A179C"/>
</svg>
