<svg width="1920" height="1080" viewBox="0 0 1920 1080" fill="none" xmlns="http://www.w3.org/2000/svg">
<rect width="1920" height="1080" fill="url(#paint0_linear_1_45)"/>
<ellipse cx="1356" cy="861" rx="25" ry="20" fill="#22285F"/>
<ellipse cx="1578.51" cy="847.401" rx="13.5" ry="22.5" transform="rotate(-45.4841 1578.51 847.401)" fill="#22285F"/>
<circle cx="1718" cy="718" r="25" fill="#22285F"/>
<ellipse cx="1776.5" cy="853.5" rx="33.5" ry="39.5" fill="#22285F"/>
<ellipse cx="1040" cy="693" rx="25" ry="20" fill="#22285F"/>
<ellipse cx="1226.5" cy="508" rx="17.5" ry="14" fill="#22285F"/>
<circle cx="722.5" cy="855.5" r="21.5" fill="#22285F"/>
<ellipse cx="1120.5" cy="956" rx="21.5" ry="17" fill="#22285F"/>
<path d="M701.5 520L703.676 540.246L719.531 527.469L706.754 543.324L727 545.5L706.754 547.676L719.531 563.531L703.676 550.754L701.5 571L699.324 550.754L683.469 563.531L696.246 547.676L676 545.5L696.246 543.324L683.469 527.469L699.324 540.246L701.5 520Z" fill="#22285F"/>
<circle cx="84" cy="92" r="23" fill="#22285F"/>
<ellipse cx="608.941" cy="364.236" rx="13.5" ry="22.5" transform="rotate(30.0003 608.941 364.236)" fill="#22285F"/>
<ellipse cx="428" cy="277.5" rx="25" ry="12.5" fill="#22285F"/>
<path d="M901 278L903.731 303.407L923.627 287.373L907.593 307.269L933 310L907.593 312.731L923.627 332.627L903.731 316.593L901 342L898.269 316.593L878.373 332.627L894.407 312.731L869 310L894.407 307.269L878.373 287.373L898.269 303.407L901 278Z" fill="#22285F"/>
<ellipse cx="104.5" cy="353" rx="20.5" ry="24" fill="#22285F"/>
<ellipse cx="789" cy="79.5" rx="14" ry="10.5" fill="#22285F"/>
<ellipse cx="1064.96" cy="408.818" rx="19.5" ry="13.5" transform="rotate(91.3732 1064.96 408.818)" fill="#22285F"/>
<ellipse cx="1331.42" cy="331" rx="23.4234" ry="20" fill="#22285F"/>
<ellipse cx="1596.58" cy="49" rx="23.4234" ry="20" fill="#22285F"/>
<ellipse cx="1599.86" cy="352.5" rx="20.1441" ry="14.5" fill="#22285F"/>
<ellipse cx="23.5152" cy="23.6982" rx="23.5152" ry="23.6982" transform="matrix(0.63331 0.773898 -0.731467 0.681877 1517.14 478.285)" fill="#22285F"/>
<circle cx="441.5" cy="972.5" r="17.5" fill="#22285F"/>
<path d="M130.5 857L132.335 874.07L145.703 863.297L134.93 876.665L152 878.5L134.93 880.335L145.703 893.703L132.335 882.93L130.5 900L128.665 882.93L115.297 893.703L126.07 880.335L109 878.5L126.07 876.665L115.297 863.297L128.665 874.07L130.5 857Z" fill="#22285F"/>
<ellipse cx="441.5" cy="743.5" rx="22.5" ry="26.5" transform="rotate(-90 441.5 743.5)" fill="#22285F"/>
<defs>
<linearGradient id="paint0_linear_1_45" x1="1920" y1="1080" x2="1261.78" y2="-519.305" gradientUnits="userSpaceOnUse">
<stop stop-color="#0E0F2F" stop-opacity="0.97"/>
<stop offset="0.93" stop-color="#0E0E1C"/>
</linearGradient>
</defs>
</svg>
