<svg width="1920" height="1080" viewBox="0 0 1920 1080" fill="none" xmlns="http://www.w3.org/2000/svg">
<g clip-path="url(#clip0_1_2)">
<rect width="1920" height="1080" fill="#27357C"/>
<rect width="1920" height="1080" fill="#151031"/>
<path d="M0 817H1920V1080H0V817Z" fill="#403A84"/>
<rect x="320" y="858" width="1127" height="162" rx="81" fill="black" fill-opacity="0.34"/>
<rect x="1337" y="899" width="29" height="65" rx="8" fill="#A0A0A0"/>
<rect x="554" y="891" width="30" height="73" rx="8" fill="#A0A0A0"/>
<circle cx="1413" cy="768" r="144" fill="#45260F"/>
<circle cx="506" cy="768" r="144" fill="#45260F"/>
<rect x="505" y="624" width="909" height="288" fill="#45260F"/>
<path fill-rule="evenodd" clip-rule="evenodd" d="M538.544 857.544C538.544 866.331 532.524 874.154 523.776 874.983C520.423 875.3 517.024 875.463 513.588 875.463C454.685 875.463 406.935 827.713 406.935 768.81C406.935 709.908 454.685 662.157 513.588 662.157C517.024 662.157 520.423 662.32 523.776 662.638C532.524 663.467 538.544 671.289 538.544 680.076V857.544Z" fill="#2A1709"/>
<path fill-rule="evenodd" clip-rule="evenodd" d="M1381.47 857.544C1381.47 866.331 1387.49 874.154 1396.24 874.983C1399.59 875.3 1402.99 875.463 1406.43 875.463C1465.33 875.463 1513.08 827.713 1513.08 768.81C1513.08 709.908 1465.33 662.157 1406.43 662.157C1402.99 662.157 1399.59 662.32 1396.24 662.638C1387.49 663.467 1381.47 671.289 1381.47 680.076V857.544Z" fill="#2B1709"/>
<rect x="584" y="662" width="753" height="214" rx="19" fill="#2A1709"/>
<rect x="1292" y="742" width="25" height="134" rx="8" fill="#3E33B9"/>
<rect x="605" y="741" width="25" height="134" rx="8" fill="#2D4425"/>
<rect x="630" y="741" width="25" height="134" rx="8" fill="#815E45"/>
<rect x="1219.27" y="742.191" width="25.2761" height="133.402" rx="8" transform="rotate(13.0003 1219.27 742.191)" fill="#675C23"/>
<rect width="25.2761" height="133.402" rx="8" transform="matrix(0.974369 -0.224956 -0.224956 -0.974369 683.01 877.669)" fill="#675C23"/>
<rect x="1241" y="742" width="25" height="134" rx="8" fill="#712525"/>
<rect x="1266" y="742" width="26" height="134" rx="8" fill="#34751E"/>
<rect x="1234.03" y="575.532" width="21.0635" height="82.3702" rx="10.5317" transform="rotate(-24.8812 1234.03 575.532)" fill="#282828"/>
<rect width="21.0635" height="82.3702" rx="10.5317" transform="matrix(-0.907182 -0.420739 -0.420739 0.907182 683.973 575.532)" fill="#282828"/>
<rect width="854" height="480" rx="23" transform="matrix(1 0 0 -1 533 603)" fill="#2F2F2F"/>
<rect width="800" height="426" transform="matrix(1 0 0 -1 560 576)" fill="#5E5E5E"/>
<rect x="1581" y="166" width="251" height="348" rx="20" fill="#3D3965"/>
<rect x="1601" y="186" width="211" height="308" rx="13" fill="#0257BA"/>
<rect width="43" height="15" transform="matrix(1 0 0 -1 1776 286)" fill="#D9D9D9"/>
<circle cx="7.5" cy="7.5" r="7.5" transform="matrix(1 0 0 -1 1811 286)" fill="#D9D9D9"/>
<circle cx="7.5" cy="7.5" r="7.5" transform="matrix(1 0 0 -1 1768 286)" fill="#D9D9D9"/>
<rect x="1601" y="423" width="211" height="71" rx="13" fill="#20992C"/>
<rect x="1601" y="409" width="211" height="28" fill="#20992C"/>
<rect x="1697" y="186" width="20" height="308" fill="#3D3965"/>
<rect x="1601" y="350" width="20" height="211" transform="rotate(-90 1601 350)" fill="#3D3965"/>
<rect width="24" height="24" transform="matrix(1 0 0 -1 1652 224)" fill="#D9D9D9"/>
<rect width="37" height="37" transform="matrix(1 0 0 -1 1634 289)" fill="#D9D9D9"/>
<rect width="43" height="25" transform="matrix(1 0 0 -1 1736 252)" fill="#D9D9D9"/>
<circle cx="12" cy="12" r="12" transform="matrix(1 0 0 -1 1664 224)" fill="#D9D9D9"/>
<circle cx="18.5" cy="18.5" r="18.5" transform="matrix(1 0 0 -1 1653 289)" fill="#D9D9D9"/>
<circle cx="12.5" cy="12.5" r="12.5" transform="matrix(1 0 0 -1 1766 252)" fill="#D9D9D9"/>
<circle cx="12" cy="12" r="12" transform="matrix(1 0 0 -1 1639 224)" fill="#D9D9D9"/>
<circle cx="18.5" cy="18.5" r="18.5" transform="matrix(1 0 0 -1 1614 289)" fill="#D9D9D9"/>
<circle cx="12.5" cy="12.5" r="12.5" transform="matrix(1 0 0 -1 1723 252)" fill="#D9D9D9"/>
<rect x="1812" y="227" width="18" height="69" fill="#3D3965"/>
<rect x="-103" y="197" width="363" height="687" rx="32" fill="#45260F"/>
<rect x="-90" y="210" width="337" height="128" rx="24" fill="#2A1709"/>
<rect x="-90" y="351" width="337" height="128" rx="24" fill="#2A1709"/>
<rect x="-90" y="492" width="337" height="128" rx="24" fill="#2A1709"/>
<rect x="-90" y="633" width="337" height="128" rx="24" fill="#2A1709"/>
<rect x="85" y="774" width="162" height="97" rx="24" fill="#2D180C"/>
<rect x="-90" y="774" width="162" height="97" rx="24" fill="#2D180C"/>
<rect x="117" y="812" width="22" height="22" rx="11" fill="#AC9624"/>
<rect x="18" y="812" width="22" height="22" rx="11" fill="#AC9624"/>
<rect x="24" y="818" width="10" height="10" rx="5" fill="#7B6C19"/>
<rect x="123" y="818" width="10" height="10" rx="5" fill="#7B6C19"/>
<rect width="21" height="106" rx="8" transform="matrix(1 0 0 -1 39 762.022)" fill="#236367"/>
<rect width="22" height="106" rx="8" transform="matrix(-1 0 0 1 39 655.022)" fill="#A57C7C"/>
<rect width="21" height="106" rx="8" transform="matrix(-1 0 0 1 17 655.022)" fill="#273872"/>
<path d="M155 408H202V475C202 477.209 200.209 479 198 479H159C156.791 479 155 477.209 155 475V408Z" fill="#131313"/>
<path d="M155 408C155 405.239 157.239 403 160 403H197C199.761 403 202 405.239 202 408H155Z" fill="#184AAC"/>
<path d="M1748 943C1748 924.222 1763.22 909 1782 909H1891C1909.78 909 1925 924.222 1925 943H1748Z" fill="#2C2C2C"/>
<rect x="1828" y="463" width="18" height="446" fill="#2C2C2C"/>
<path d="M1785.74 311.478C1786.47 307.717 1789.77 305 1793.6 305H1837H1880.4C1884.23 305 1887.53 307.717 1888.26 311.478L1916.16 455.478C1917.11 460.415 1913.33 465 1908.3 465H1765.7C1760.67 465 1756.89 460.415 1757.84 455.478L1785.74 311.478Z" fill="#6D3B00"/>
</g>
<defs>
<clipPath id="clip0_1_2">
<rect width="1920" height="1080" fill="white"/>
</clipPath>
</defs>
</svg>
